<?xml version="1.0" encoding="UTF-8" standalone="no"?><!DOCTYPE svg PUBLIC "-//W3C//DTD SVG 1.1//EN" "http://www.w3.org/Graphics/SVG/1.1/DTD/svg11.dtd"><svg width="100%" height="100%" viewBox="0 0 4961 3508" version="1.1" xmlns="http://www.w3.org/2000/svg" xmlns:xlink="http://www.w3.org/1999/xlink" xml:space="preserve" xmlns:serif="http://www.serif.com/" style="fill-rule:evenodd;clip-rule:evenodd;stroke-linejoin:round;stroke-miterlimit:2;"><rect id="creanm" x="0" y="0" width="4960.63" height="3507.874" style="fill:none;"/><clipPath id="_clip1"><rect x="0" y="0" width="4960.63" height="3507.874"/></clipPath><g clip-path="url(#_clip1)"><rect x="-9.851" y="-83.886" width="5333.443" height="3627.025"/><g id="host-pc" serif:id="host pc"><path d="M4834.611,243.999l0,2993.361c0,91.782 -74.516,166.298 -166.298,166.298l-4375.996,0c-91.782,0 -166.298,-74.516 -166.298,-166.298l0,-2993.361c0,-91.782 74.516,-166.298 166.298,-166.298l4375.996,0c91.782,0 166.298,74.516 166.298,166.298Z" style="fill:#103bc7;fill-opacity:0.22;"/><path d="M4815.629,182.991c-1.455,-3.505 0.21,-7.531 3.714,-8.985c3.505,-1.455 7.531,0.21 8.985,3.714c8.476,20.42 13.158,42.808 13.158,66.28l0,35.635c0,3.794 -3.081,6.875 -6.875,6.875c-3.794,0 -6.875,-3.081 -6.875,-6.875l-0,-35.635c0,-21.605 -4.305,-42.212 -12.107,-61.008Zm12.107,167.914c0,-3.794 3.081,-6.875 6.875,-6.875c3.794,0 6.875,3.081 6.875,6.875l0,71.272c0,3.794 -3.081,6.875 -6.875,6.875c-3.794,0 -6.875,-3.081 -6.875,-6.875l-0,-71.272Zm0,142.54c0,-3.794 3.081,-6.875 6.875,-6.875c3.794,0 6.875,3.081 6.875,6.875l-0,71.268c0,3.794 -3.081,6.875 -6.875,6.875c-3.794,-0 -6.875,-3.081 -6.875,-6.875l0,-71.268Zm0,142.541c0,-3.794 3.081,-6.875 6.875,-6.875c3.794,0 6.875,3.081 6.875,6.875l0,71.27c0,3.794 -3.081,6.875 -6.875,6.875c-3.794,0 -6.875,-3.081 -6.875,-6.875l0,-71.27Zm0,142.542c0,-3.794 3.081,-6.875 6.875,-6.875c3.794,0 6.875,3.081 6.875,6.875l0,71.273c0,3.794 -3.081,6.875 -6.875,6.875c-3.794,0 -6.875,-3.081 -6.875,-6.875l0,-71.273Zm-0,142.537c0,-3.794 3.081,-6.875 6.875,-6.875c3.794,0 6.875,3.081 6.875,6.875l0,71.273c0,3.794 -3.081,6.875 -6.875,6.875c-3.794,0 -6.875,-3.081 -6.875,-6.875l0,-71.273Zm0,142.541c0,-3.794 3.081,-6.875 6.875,-6.875c3.794,0 6.875,3.081 6.875,6.875l0,71.268c0,3.794 -3.081,6.875 -6.875,6.875c-3.794,0 -6.875,-3.081 -6.875,-6.875l0,-71.268Zm0,142.541c0,-3.794 3.081,-6.875 6.875,-6.875c3.794,0 6.875,3.081 6.875,6.875l0,71.269c0,3.794 -3.081,6.875 -6.875,6.875c-3.794,0 -6.875,-3.081 -6.875,-6.875l0,-71.269Zm0,142.541c0,-3.794 3.081,-6.875 6.875,-6.875c3.794,0 6.875,3.081 6.875,6.875l0,71.27c0,3.794 -3.081,6.875 -6.875,6.875c-3.794,0 -6.875,-3.081 -6.875,-6.875l0,-71.27Zm0,142.544c0,-3.794 3.081,-6.875 6.875,-6.875c3.794,0 6.875,3.081 6.875,6.875l0,71.27c0,3.794 -3.081,6.875 -6.875,6.875c-3.794,0 -6.875,-3.081 -6.875,-6.875l0,-71.27Zm0,142.541c0,-3.794 3.081,-6.875 6.875,-6.875c3.794,0 6.875,3.081 6.875,6.875l0,71.271c0,3.794 -3.081,6.875 -6.875,6.875c-3.794,0 -6.875,-3.081 -6.875,-6.875l0,-71.271Zm0,142.542c0,-3.794 3.081,-6.875 6.875,-6.875c3.794,0 6.875,3.081 6.875,6.875l-0,71.272c0,3.794 -3.081,6.875 -6.875,6.875c-3.794,0 -6.875,-3.081 -6.875,-6.875l0,-71.272Zm0,142.544c0,-3.794 3.081,-6.875 6.875,-6.875c3.794,0 6.875,3.081 6.875,6.875l-0,71.271c0,3.794 -3.081,6.875 -6.875,6.875c-3.794,0 -6.875,-3.081 -6.875,-6.875l0,-71.271Zm0,142.539c0,-3.794 3.081,-6.875 6.875,-6.875c3.794,0 6.875,3.081 6.875,6.875l0,71.272c0,3.794 -3.081,6.875 -6.875,6.875c-3.794,0 -6.875,-3.081 -6.875,-6.875l0,-71.272Zm0,142.538c0,-3.794 3.081,-6.875 6.875,-6.875c3.794,0 6.875,3.081 6.875,6.875l0,71.27c0,3.794 -3.081,6.875 -6.875,6.875c-3.794,0 -6.875,-3.081 -6.875,-6.875l-0,-71.27Zm0,142.539c0,-3.794 3.081,-6.875 6.875,-6.875c3.794,0 6.875,3.081 6.875,6.875l0,71.27c0,3.794 -3.081,6.875 -6.875,6.875c-3.794,0 -6.875,-3.081 -6.875,-6.875l0,-71.27Zm0,142.543c0,-3.794 3.081,-6.875 6.875,-6.875c3.794,0 6.875,3.081 6.875,6.875l0,71.27c0,3.794 -3.081,6.875 -6.875,6.875c-3.794,0 -6.875,-3.081 -6.875,-6.875l-0,-71.27Zm0,142.544c0,-3.794 3.081,-6.875 6.875,-6.875c3.794,0 6.875,3.081 6.875,6.875l0,71.271c0,3.794 -3.081,6.875 -6.875,6.875c-3.794,0 -6.875,-3.081 -6.875,-6.875l0,-71.271Zm0,142.537c0,-3.794 3.081,-6.875 6.875,-6.875c3.794,0 6.875,3.081 6.875,6.875l0,71.271c0,3.794 -3.081,6.875 -6.875,6.875c-3.794,0 -6.875,-3.081 -6.875,-6.875l0,-71.271Zm0,142.543c0,-3.794 3.081,-6.875 6.875,-6.875c3.794,0 6.875,3.081 6.875,6.875l0,71.271c0,3.794 -3.081,6.875 -6.875,6.875c-3.794,0 -6.875,-3.081 -6.875,-6.875l0,-71.271Zm0,142.538c0,-3.794 3.081,-6.875 6.875,-6.875c3.794,0 6.875,3.081 6.875,6.875l0,71.271c0,3.794 -3.081,6.875 -6.875,6.875c-3.794,0 -6.875,-3.081 -6.875,-6.875l-0,-71.271Zm0,142.543c0,-3.794 3.081,-6.875 6.875,-6.875c3.794,0 6.875,3.081 6.875,6.875l-0,35.635c0,23.472 -4.682,45.859 -13.158,66.28c-1.455,3.505 -5.481,5.169 -8.985,3.714c-3.505,-1.455 -5.169,-5.481 -3.714,-8.985c7.802,-18.796 12.107,-39.403 12.107,-61.008l0,-35.635Zm-98.415,182.951c3.505,-1.455 7.531,0.21 8.985,3.714c1.455,3.505 -0.21,7.531 -3.714,8.985c-20.42,8.476 -42.808,13.158 -66.28,13.158l-35.291,0c-3.794,0 -6.875,-3.081 -6.875,-6.875c0,-3.794 3.081,-6.875 6.875,-6.875l35.291,0c21.605,0 42.212,-4.305 61.008,-12.107Zm-166.879,12.107c3.794,0 6.875,3.081 6.875,6.875c0,3.794 -3.081,6.875 -6.875,6.875l-70.579,0c-3.794,0 -6.875,-3.081 -6.875,-6.875c0,-3.794 3.081,-6.875 6.875,-6.875l70.579,0Zm-141.164,0c3.794,0 6.875,3.081 6.875,6.875c0,3.794 -3.081,6.875 -6.875,6.875l-70.581,0c-3.794,0 -6.875,-3.081 -6.875,-6.875c0,-3.794 3.081,-6.875 6.875,-6.875l70.581,0Zm-141.16,0c3.794,0 6.875,3.081 6.875,6.875c0,3.794 -3.081,6.875 -6.875,6.875l-70.58,0c-3.794,0 -6.875,-3.081 -6.875,-6.875c0,-3.794 3.081,-6.875 6.875,-6.875l70.58,0Zm-141.163,0c3.794,0 6.875,3.081 6.875,6.875c0,3.794 -3.081,6.875 -6.875,6.875l-70.582,0c-3.794,0 -6.875,-3.081 -6.875,-6.875c0,-3.794 3.081,-6.875 6.875,-6.875l70.582,0Zm-141.158,0c3.794,0 6.875,3.081 6.875,6.875c0,3.794 -3.081,6.875 -6.875,6.875l-70.579,0c-3.794,0 -6.875,-3.081 -6.875,-6.875c0,-3.794 3.081,-6.875 6.875,-6.875l70.579,0Zm-141.156,0c3.794,0 6.875,3.081 6.875,6.875c0,3.794 -3.081,6.875 -6.875,6.875l-70.578,0c-3.794,0 -6.875,-3.081 -6.875,-6.875c0,-3.794 3.081,-6.875 6.875,-6.875l70.578,0Zm-141.168,0c3.794,0 6.875,3.081 6.875,6.875c0,3.794 -3.081,6.875 -6.875,6.875l-70.584,0c-3.794,0 -6.875,-3.081 -6.875,-6.875c0,-3.794 3.081,-6.875 6.875,-6.875l70.584,0Zm-141.16,0c3.794,0 6.875,3.081 6.875,6.875c0,3.794 -3.081,6.875 -6.875,6.875l-70.582,0c-3.794,0 -6.875,-3.081 -6.875,-6.875c0,-3.794 3.081,-6.875 6.875,-6.875l70.582,0Zm-141.155,0c3.794,0 6.875,3.081 6.875,6.875c0,3.794 -3.081,6.875 -6.875,6.875l-70.579,0c-3.794,0 -6.875,-3.081 -6.875,-6.875c0,-3.794 3.081,-6.875 6.875,-6.875l70.579,0Zm-141.162,0c3.794,0 6.875,3.081 6.875,6.875c0,3.794 -3.081,6.875 -6.875,6.875l-70.581,0c-3.794,0 -6.875,-3.081 -6.875,-6.875c0,-3.794 3.081,-6.875 6.875,-6.875l70.581,0Zm-141.163,0c3.794,0 6.875,3.081 6.875,6.875c0,3.794 -3.081,6.875 -6.875,6.875l-70.583,0c-3.794,0 -6.875,-3.081 -6.875,-6.875c0,-3.794 3.081,-6.875 6.875,-6.875l70.583,-0Zm-141.166,0c3.794,0 6.875,3.081 6.875,6.875c0,3.794 -3.081,6.875 -6.875,6.875l-70.577,0c-3.794,0 -6.875,-3.081 -6.875,-6.875c0,-3.794 3.081,-6.875 6.875,-6.875l70.577,0Zm-141.163,0c3.794,0 6.875,3.081 6.875,6.875c0,3.794 -3.081,6.875 -6.875,6.875l-70.579,0c-3.794,0 -6.875,-3.081 -6.875,-6.875c0,-3.794 3.081,-6.875 6.875,-6.875l70.579,0Zm-141.159,0c3.794,0 6.875,3.081 6.875,6.875c0,3.794 -3.081,6.875 -6.875,6.875l-70.579,0c-3.794,0 -6.875,-3.081 -6.875,-6.875c0,-3.794 3.081,-6.875 6.875,-6.875l70.579,0Zm-141.154,0c3.794,0 6.875,3.081 6.875,6.875c0,3.794 -3.081,6.875 -6.875,6.875l-70.584,0c-3.794,0 -6.875,-3.081 -6.875,-6.875c0,-3.794 3.081,-6.875 6.875,-6.875l70.584,0Zm-141.16,0c3.794,0 6.875,3.081 6.875,6.875c0,3.794 -3.081,6.875 -6.875,6.875l-70.582,0c-3.794,0 -6.875,-3.081 -6.875,-6.875c0,-3.794 3.081,-6.875 6.875,-6.875l70.582,0Zm-141.167,0c3.794,0 6.875,3.081 6.875,6.875c0,3.794 -3.081,6.875 -6.875,6.875l-70.579,0c-3.794,0 -6.875,-3.081 -6.875,-6.875c0,-3.794 3.081,-6.875 6.875,-6.875l70.579,0Zm-141.157,0c3.794,0 6.875,3.081 6.875,6.875c0,3.794 -3.081,6.875 -6.875,6.875l-70.583,0c-3.794,0 -6.875,-3.081 -6.875,-6.875c0,-3.794 3.081,-6.875 6.875,-6.875l70.583,0Zm-141.167,0c3.794,0 6.875,3.081 6.875,6.875c0,3.794 -3.081,6.875 -6.875,6.875l-70.583,0c-3.794,0 -6.875,-3.081 -6.875,-6.875c0,-3.794 3.081,-6.875 6.875,-6.875l70.583,0Zm-141.162,0c3.794,0 6.875,3.081 6.875,6.875c0,3.794 -3.081,6.875 -6.875,6.875l-70.581,0c-3.794,0 -6.875,-3.081 -6.875,-6.875c0,-3.794 3.081,-6.875 6.875,-6.875l70.581,0Zm-141.152,0c3.794,0 6.875,3.081 6.875,6.875c0,3.794 -3.081,6.875 -6.875,6.875l-70.58,0c-3.794,0 -6.875,-3.081 -6.875,-6.875c0,-3.794 3.081,-6.875 6.875,-6.875l70.58,0Zm-141.17,0c3.794,0 6.875,3.081 6.875,6.875c0,3.794 -3.081,6.875 -6.875,6.875l-70.582,0c-3.794,0 -6.875,-3.081 -6.875,-6.875c0,-3.794 3.081,-6.875 6.875,-6.875l70.582,0Zm-141.16,0c3.794,0 6.875,3.081 6.875,6.875c0,3.794 -3.081,6.875 -6.875,6.875l-70.582,0c-3.794,0 -6.875,-3.081 -6.875,-6.875c0,-3.794 3.081,-6.875 6.875,-6.875l70.582,0Zm-141.163,0c3.794,0 6.875,3.081 6.875,6.875c0,3.794 -3.081,6.875 -6.875,6.875l-70.582,0c-3.794,0 -6.875,-3.081 -6.875,-6.875c0,-3.794 3.081,-6.875 6.875,-6.875l70.582,0Zm-141.152,0c3.794,0 6.875,3.081 6.875,6.875c0,3.794 -3.081,6.875 -6.875,6.875l-70.58,0c-3.794,0 -6.875,-3.081 -6.875,-6.875c0,-3.794 3.081,-6.875 6.875,-6.875l70.58,0Zm-141.167,0c3.794,0 6.875,3.081 6.875,6.875c0,3.794 -3.081,6.875 -6.875,6.875l-70.579,0c-3.794,0 -6.875,-3.081 -6.875,-6.875c0,-3.794 3.081,-6.875 6.875,-6.875l70.579,0Zm-141.159,0c3.794,0 6.875,3.081 6.875,6.875c0,3.794 -3.081,6.875 -6.875,6.875l-70.58,0c-3.794,0 -6.875,-3.081 -6.875,-6.875c0,-3.794 3.081,-6.875 6.875,-6.875l70.58,0Zm-141.165,0c3.794,0 6.875,3.081 6.875,6.875c0,3.794 -3.081,6.875 -6.875,6.875l-70.58,0c-3.794,0 -6.875,-3.081 -6.875,-6.875c0,-3.794 3.081,-6.875 6.875,-6.875l70.58,0Zm-141.159,0c3.794,0 6.875,3.081 6.875,6.875c0,3.794 -3.081,6.875 -6.875,6.875l-70.58,0c-3.794,0 -6.875,-3.081 -6.875,-6.875c0,-3.794 3.081,-6.875 6.875,-6.875l70.58,0Zm-141.161,0c3.794,0 6.875,3.081 6.875,6.875c0,3.794 -3.081,6.875 -6.875,6.875l-70.581,0c-3.794,0 -6.875,-3.081 -6.875,-6.875c0,-3.794 3.081,-6.875 6.875,-6.875l70.581,0Zm-141.159,0c3.794,0 6.875,3.081 6.875,6.875c0,3.794 -3.081,6.875 -6.875,6.875l-35.291,0c-23.472,0 -45.859,-4.682 -66.28,-13.158c-3.505,-1.455 -5.169,-5.481 -3.714,-8.985c1.455,-3.505 5.481,-5.169 8.985,-3.714c18.796,7.802 39.403,12.107 61.008,12.107l35.291,0Zm-182.606,-98.415c1.455,3.505 -0.21,7.531 -3.714,8.985c-3.505,1.455 -7.531,-0.21 -8.985,-3.714c-8.476,-20.42 -13.158,-42.808 -13.158,-66.28l0,-35.635c0,-3.794 3.081,-6.875 6.875,-6.875c3.794,0 6.875,3.081 6.875,6.875l0,35.635c0,21.605 4.305,42.212 12.107,61.008Zm-12.107,-167.914c0,3.794 -3.081,6.875 -6.875,6.875c-3.794,0 -6.875,-3.081 -6.875,-6.875l0,-71.272c0,-3.794 3.081,-6.875 6.875,-6.875c3.794,0 6.875,3.081 6.875,6.875l-0,71.272Zm0,-142.54c0,3.794 -3.081,6.875 -6.875,6.875c-3.794,0 -6.875,-3.081 -6.875,-6.875l0,-71.268c0,-3.794 3.081,-6.875 6.875,-6.875c3.794,0 6.875,3.081 6.875,6.875l0,71.268Zm-0,-142.541c0,3.794 -3.081,6.875 -6.875,6.875c-3.794,0 -6.875,-3.081 -6.875,-6.875l0,-71.27c0,-3.794 3.081,-6.875 6.875,-6.875c3.794,0 6.875,3.081 6.875,6.875l0,71.27Zm0,-142.542c0,3.794 -3.081,6.875 -6.875,6.875c-3.794,0 -6.875,-3.081 -6.875,-6.875l0,-71.273c0,-3.794 3.081,-6.875 6.875,-6.875c3.794,0 6.875,3.081 6.875,6.875l0,71.273Zm0,-142.537c0,3.794 -3.081,6.875 -6.875,6.875c-3.794,0 -6.875,-3.081 -6.875,-6.875l0,-71.273c0,-3.794 3.081,-6.875 6.875,-6.875c3.794,0 6.875,3.081 6.875,6.875l0,71.273Zm0,-142.541c0,3.794 -3.081,6.875 -6.875,6.875c-3.794,0 -6.875,-3.081 -6.875,-6.875l0,-71.268c0,-3.794 3.081,-6.875 6.875,-6.875c3.794,0 6.875,3.081 6.875,6.875l0,71.268Zm0,-142.541c0,3.794 -3.081,6.875 -6.875,6.875c-3.794,0 -6.875,-3.081 -6.875,-6.875l0,-71.269c0,-3.794 3.081,-6.875 6.875,-6.875c3.794,0 6.875,3.081 6.875,6.875l0,71.269Zm0,-142.541c0,3.794 -3.081,6.875 -6.875,6.875c-3.794,0 -6.875,-3.081 -6.875,-6.875l0,-71.27c0,-3.794 3.081,-6.875 6.875,-6.875c3.794,0 6.875,3.081 6.875,6.875l-0,71.27Zm0,-142.544c0,3.794 -3.081,6.875 -6.875,6.875c-3.794,0 -6.875,-3.081 -6.875,-6.875l0,-71.27c0,-3.794 3.081,-6.875 6.875,-6.875c3.794,0 6.875,3.081 6.875,6.875l0,71.27Zm-0,-142.541c0,3.794 -3.081,6.875 -6.875,6.875c-3.794,0 -6.875,-3.081 -6.875,-6.875l0,-71.271c0,-3.794 3.081,-6.875 6.875,-6.875c3.794,0 6.875,3.081 6.875,6.875l0,71.271Zm0,-142.542c0,3.794 -3.081,6.875 -6.875,6.875c-3.794,0 -6.875,-3.081 -6.875,-6.875l0,-71.272c0,-3.794 3.081,-6.875 6.875,-6.875c3.794,0 6.875,3.081 6.875,6.875l0,71.272Zm0,-142.544c0,3.794 -3.081,6.875 -6.875,6.875c-3.794,0 -6.875,-3.081 -6.875,-6.875l0,-71.271c0,-3.794 3.081,-6.875 6.875,-6.875c3.794,0 6.875,3.081 6.875,6.875l0,71.271Zm0,-142.539c0,3.794 -3.081,6.875 -6.875,6.875c-3.794,0 -6.875,-3.081 -6.875,-6.875l0,-71.272c0,-3.794 3.081,-6.875 6.875,-6.875c3.794,0 6.875,3.081 6.875,6.875l0,71.272Zm0,-142.538c0,3.794 -3.081,6.875 -6.875,6.875c-3.794,0 -6.875,-3.081 -6.875,-6.875l0,-71.27c0,-3.794 3.081,-6.875 6.875,-6.875c3.794,0 6.875,3.081 6.875,6.875l0,71.27Zm0,-142.539c0,3.794 -3.081,6.875 -6.875,6.875c-3.794,0 -6.875,-3.081 -6.875,-6.875l0,-71.27c0,-3.794 3.081,-6.875 6.875,-6.875c3.794,0 6.875,3.081 6.875,6.875l0,71.27Zm0,-142.543c0,3.794 -3.081,6.875 -6.875,6.875c-3.794,0 -6.875,-3.081 -6.875,-6.875l0,-71.27c0,-3.794 3.081,-6.875 6.875,-6.875c3.794,0 6.875,3.081 6.875,6.875l-0,71.27Zm0,-142.544c0,3.794 -3.081,6.875 -6.875,6.875c-3.794,0 -6.875,-3.081 -6.875,-6.875l0,-71.271c0,-3.794 3.081,-6.875 6.875,-6.875c3.794,0 6.875,3.081 6.875,6.875l0,71.271Zm0,-142.537c0,3.794 -3.081,6.875 -6.875,6.875c-3.794,0 -6.875,-3.081 -6.875,-6.875l-0,-71.271c0,-3.794 3.081,-6.875 6.875,-6.875c3.794,0 6.875,3.081 6.875,6.875l0,71.271Zm-0,-142.543c0,3.794 -3.081,6.875 -6.875,6.875c-3.794,0 -6.875,-3.081 -6.875,-6.875l0,-71.271c0,-3.794 3.081,-6.875 6.875,-6.875c3.794,0 6.875,3.081 6.875,6.875l0,71.271Zm0,-142.538c0,3.794 -3.081,6.875 -6.875,6.875c-3.794,0 -6.875,-3.081 -6.875,-6.875l0,-71.271c0,-3.794 3.081,-6.875 6.875,-6.875c3.794,0 6.875,3.081 6.875,6.875l0,71.271Zm0,-142.543c0,3.794 -3.081,6.875 -6.875,6.875c-3.794,0 -6.875,-3.081 -6.875,-6.875l0,-35.635c0,-23.472 4.682,-45.859 13.158,-66.28c1.455,-3.505 5.481,-5.169 8.985,-3.714c3.505,1.455 5.169,5.481 3.714,8.985c-7.802,18.796 -12.107,39.403 -12.107,61.008l0,35.635Zm98.415,-182.951c-3.505,1.455 -7.531,-0.21 -8.985,-3.714c-1.455,-3.505 0.21,-7.531 3.714,-8.985c20.42,-8.476 42.808,-13.158 66.28,-13.158l35.291,0c3.794,0 6.875,3.081 6.875,6.875c0,3.794 -3.081,6.875 -6.875,6.875l-35.291,0c-21.605,0 -42.212,4.305 -61.008,12.107Zm166.879,-12.107c-3.794,0 -6.875,-3.081 -6.875,-6.875c0,-3.794 3.081,-6.875 6.875,-6.875l70.579,0c3.794,0 6.875,3.081 6.875,6.875c0,3.794 -3.081,6.875 -6.875,6.875l-70.579,0Zm141.164,0c-3.794,0 -6.875,-3.081 -6.875,-6.875c0,-3.794 3.081,-6.875 6.875,-6.875l70.581,0c3.794,0 6.875,3.081 6.875,6.875c0,3.794 -3.081,6.875 -6.875,6.875l-70.581,0Zm141.16,0c-3.794,0 -6.875,-3.081 -6.875,-6.875c0,-3.794 3.081,-6.875 6.875,-6.875l70.58,0c3.794,0 6.875,3.081 6.875,6.875c0,3.794 -3.081,6.875 -6.875,6.875l-70.58,0Zm141.163,-0c-3.794,0 -6.875,-3.081 -6.875,-6.875c0,-3.794 3.081,-6.875 6.875,-6.875l70.582,0c3.794,0 6.875,3.081 6.875,6.875c0,3.794 -3.081,6.875 -6.875,6.875l-70.582,0Zm141.158,0c-3.794,0 -6.875,-3.081 -6.875,-6.875c0,-3.794 3.081,-6.875 6.875,-6.875l70.579,0c3.794,0 6.875,3.081 6.875,6.875c0,3.794 -3.081,6.875 -6.875,6.875l-70.579,0Zm141.156,-0c-3.794,0 -6.875,-3.081 -6.875,-6.875c0,-3.794 3.081,-6.875 6.875,-6.875l70.578,0c3.794,0 6.875,3.081 6.875,6.875c0,3.794 -3.081,6.875 -6.875,6.875l-70.578,0Zm141.168,0c-3.794,0 -6.875,-3.081 -6.875,-6.875c0,-3.794 3.081,-6.875 6.875,-6.875l70.584,0c3.794,0 6.875,3.081 6.875,6.875c0,3.794 -3.081,6.875 -6.875,6.875l-70.584,0Zm141.16,0c-3.794,0 -6.875,-3.081 -6.875,-6.875c0,-3.794 3.081,-6.875 6.875,-6.875l70.582,0c3.794,0 6.875,3.081 6.875,6.875c0,3.794 -3.081,6.875 -6.875,6.875l-70.582,0Zm141.155,0c-3.794,0 -6.875,-3.081 -6.875,-6.875c0,-3.794 3.081,-6.875 6.875,-6.875l70.579,0c3.794,0 6.875,3.081 6.875,6.875c0,3.794 -3.081,6.875 -6.875,6.875l-70.579,0Zm141.162,-0c-3.794,0 -6.875,-3.081 -6.875,-6.875c0,-3.794 3.081,-6.875 6.875,-6.875l70.581,0c3.794,0 6.875,3.081 6.875,6.875c0,3.794 -3.081,6.875 -6.875,6.875l-70.581,0Zm141.163,0c-3.794,0 -6.875,-3.081 -6.875,-6.875c0,-3.794 3.081,-6.875 6.875,-6.875l70.583,0c3.794,0 6.875,3.081 6.875,6.875c0,3.794 -3.081,6.875 -6.875,6.875l-70.583,0Zm141.166,0c-3.794,0 -6.875,-3.081 -6.875,-6.875c0,-3.794 3.081,-6.875 6.875,-6.875l70.577,0c3.794,0 6.875,3.081 6.875,6.875c0,3.794 -3.081,6.875 -6.875,6.875l-70.577,0Zm141.163,0c-3.794,0 -6.875,-3.081 -6.875,-6.875c0,-3.794 3.081,-6.875 6.875,-6.875l70.579,0c3.794,0 6.875,3.081 6.875,6.875c0,3.794 -3.081,6.875 -6.875,6.875l-70.579,0Zm141.159,0c-3.794,0 -6.875,-3.081 -6.875,-6.875c0,-3.794 3.081,-6.875 6.875,-6.875l70.579,0c3.794,0 6.875,3.081 6.875,6.875c0,3.794 -3.081,6.875 -6.875,6.875l-70.579,0Zm141.154,0c-3.794,0 -6.875,-3.081 -6.875,-6.875c0,-3.794 3.081,-6.875 6.875,-6.875l70.584,0c3.794,0 6.875,3.081 6.875,6.875c0,3.794 -3.081,6.875 -6.875,6.875l-70.584,0Zm141.16,0c-3.794,0 -6.875,-3.081 -6.875,-6.875c0,-3.794 3.081,-6.875 6.875,-6.875l70.582,0c3.794,0 6.875,3.081 6.875,6.875c0,3.794 -3.081,6.875 -6.875,6.875l-70.582,0Zm141.167,0c-3.794,0 -6.875,-3.081 -6.875,-6.875c0,-3.794 3.081,-6.875 6.875,-6.875l70.579,0c3.794,0 6.875,3.081 6.875,6.875c0,3.794 -3.081,6.875 -6.875,6.875l-70.579,0Zm141.157,0c-3.794,0 -6.875,-3.081 -6.875,-6.875c0,-3.794 3.081,-6.875 6.875,-6.875l70.583,0c3.794,0 6.875,3.081 6.875,6.875c0,3.794 -3.081,6.875 -6.875,6.875l-70.583,0Zm141.167,0c-3.794,0 -6.875,-3.081 -6.875,-6.875c0,-3.794 3.081,-6.875 6.875,-6.875l70.583,0c3.794,0 6.875,3.081 6.875,6.875c0,3.794 -3.081,6.875 -6.875,6.875l-70.583,0Zm141.162,0c-3.794,0 -6.875,-3.081 -6.875,-6.875c0,-3.794 3.081,-6.875 6.875,-6.875l70.581,0c3.794,0 6.875,3.081 6.875,6.875c0,3.794 -3.081,6.875 -6.875,6.875l-70.581,0Zm141.152,0c-3.794,0 -6.875,-3.081 -6.875,-6.875c0,-3.794 3.081,-6.875 6.875,-6.875l70.58,0c3.794,0 6.875,3.081 6.875,6.875c0,3.794 -3.081,6.875 -6.875,6.875l-70.58,0Zm141.17,0c-3.794,0 -6.875,-3.081 -6.875,-6.875c0,-3.794 3.081,-6.875 6.875,-6.875l70.582,0c3.794,0 6.875,3.081 6.875,6.875c0,3.794 -3.081,6.875 -6.875,6.875l-70.582,0Zm141.16,0c-3.794,0 -6.875,-3.081 -6.875,-6.875c0,-3.794 3.081,-6.875 6.875,-6.875l70.582,0c3.794,0 6.875,3.081 6.875,6.875c0,3.794 -3.081,6.875 -6.875,6.875l-70.582,0Zm141.163,0c-3.794,0 -6.875,-3.081 -6.875,-6.875c0,-3.794 3.081,-6.875 6.875,-6.875l70.582,0c3.794,0 6.875,3.081 6.875,6.875c0,3.794 -3.081,6.875 -6.875,6.875l-70.582,0Zm141.152,0c-3.794,0 -6.875,-3.081 -6.875,-6.875c0,-3.794 3.081,-6.875 6.875,-6.875l70.58,0c3.794,0 6.875,3.081 6.875,6.875c0,3.794 -3.081,6.875 -6.875,6.875l-70.58,0Zm141.167,0c-3.794,0 -6.875,-3.081 -6.875,-6.875c0,-3.794 3.081,-6.875 6.875,-6.875l70.579,0c3.794,0 6.875,3.081 6.875,6.875c0,3.794 -3.081,6.875 -6.875,6.875l-70.579,0Zm141.159,0c-3.794,0 -6.875,-3.081 -6.875,-6.875c0,-3.794 3.081,-6.875 6.875,-6.875l70.58,0c3.794,0 6.875,3.081 6.875,6.875c0,3.794 -3.081,6.875 -6.875,6.875l-70.58,0Zm141.165,0c-3.794,0 -6.875,-3.081 -6.875,-6.875c0,-3.794 3.081,-6.875 6.875,-6.875l70.58,0c3.794,0 6.875,3.081 6.875,6.875c0,3.794 -3.081,6.875 -6.875,6.875l-70.58,0Zm141.159,0c-3.794,0 -6.875,-3.081 -6.875,-6.875c0,-3.794 3.081,-6.875 6.875,-6.875l70.58,0c3.794,0 6.875,3.081 6.875,6.875c0,3.794 -3.081,6.875 -6.875,6.875l-70.58,0Zm141.161,0c-3.794,0 -6.875,-3.081 -6.875,-6.875c0,-3.794 3.081,-6.875 6.875,-6.875l70.581,0c3.794,0 6.875,3.081 6.875,6.875c0,3.794 -3.081,6.875 -6.875,6.875l-70.581,0Zm141.159,0c-3.794,0 -6.875,-3.081 -6.875,-6.875c0,-3.794 3.081,-6.875 6.875,-6.875l35.291,0c23.472,0 45.859,4.682 66.28,13.158c3.505,1.455 5.169,5.481 3.714,8.985c-1.455,3.505 -5.481,5.169 -8.985,3.714c-18.796,-7.802 -39.403,-12.107 -61.008,-12.107l-35.291,0Z" style="fill:#fff;fill-opacity:0.38;"/><g transform="matrix(86.496258,0,0,86.496258,1426.376183,193.792282)"></g><text x="232.728px" y="193.792px" style="font-family:'JetBrainsMono-Regular', 'JetBrains Mono', monospace;font-size:86.496px;fill:#b3b3b3;stroke:#fff;stroke-opacity:0;stroke-width:1px;">Host PC -Physical layer</text></g><g id="HOST-OS" serif:id="HOST OS"><path id="Host-OS" serif:id="Host OS" d="M4614.902,421.038l0,2613.004c0,80.12 -65.047,145.167 -145.167,145.167l-4099.911,0c-80.12,0 -145.167,-65.047 -145.167,-145.167l0,-2613.004c0,-80.12 65.047,-145.167 145.167,-145.167l4099.911,0c80.12,0 145.167,65.047 145.167,145.167Z" style="fill:#0a257c;stroke:#325fee;stroke-width:21.65px;stroke-linecap:round;stroke-miterlimit:1.5;"/><g transform="matrix(83.333333,0,0,83.333333,635.770577,422.163072)"></g><text x="285.771px" y="422.163px" style="font-family:'JetBrainsMono-Regular', 'JetBrains Mono', monospace;font-size:83.333px;fill:#b3b3b3;stroke:#fff;stroke-opacity:0;stroke-width:1px;">Host OS</text><g id="SSH"><path d="M1018.3,537.497l0,119.268c0,32.913 -26.721,59.634 -59.634,59.634l-605.512,0c-32.913,0 -59.634,-26.721 -59.634,-59.634l0,-119.268c0,-32.913 26.721,-59.634 59.634,-59.634l605.512,0c32.913,0 59.634,26.721 59.634,59.634Z" style="fill:#001866;stroke:#325fee;stroke-width:21.65px;stroke-linecap:round;stroke-miterlimit:1.5;"/><g transform="matrix(49.776175,0,0,49.776175,857.044148,679.423446)"></g><text x="468.79px" y="679.423px" style="font-family:'JetBrainsMono-Regular', 'JetBrains Mono', monospace;font-size:49.776px;fill:#ababab;stroke:#fff;stroke-opacity:0;stroke-width:1px;">Key-auth only</text><g transform="matrix(1,0,0,1,-5120.981148,-937.558515)"><text x="5904.39px" y="1488.451px" style="font-family:'JetBrainsMono-Regular', 'JetBrains Mono', monospace;font-size:49.776px;fill:#ababab;stroke:#fff;stroke-opacity:0;stroke-width:1px;">Secure</text><g transform="matrix(49.776175,0,0,49.776175,6083.583752,1554.155625)"></g><text x="5904.39px" y="1554.156px" style="font-family:'JetBrainsMono-Regular', 'JetBrains Mono', monospace;font-size:49.776px;fill:#ababab;stroke:#fff;stroke-opacity:0;stroke-width:1px;">access</text></g><g transform="matrix(163.380207,0,0,163.380207,630.462856,625.210306)"></g><text x="336.378px" y="625.21px" style="font-family:'JetBrainsMono-Regular', 'JetBrains Mono', monospace;font-size:163.38px;fill:#ababab;stroke:#fff;stroke-opacity:0;stroke-width:1px;">SSH</text></g><g id="Tailscale"><path d="M1688.173,1124.343l0,119.268c0,32.913 -26.721,59.634 -59.634,59.634l-1256.515,0c-32.913,0 -59.634,-26.721 -59.634,-59.634l0,-119.268c0,-32.913 26.721,-59.634 59.634,-59.634l1256.515,0c32.913,0 59.634,26.721 59.634,59.634Z" style="fill:#001866;stroke:#325fee;stroke-width:21.65px;stroke-linecap:round;stroke-miterlimit:1.5;"/><g transform="matrix(81.754823,0,0,81.754823,1635.204348,1170.832637)"></g><text x="1291.834px" y="1170.833px" style="font-family:'JetBrainsMono-Regular', 'JetBrains Mono', monospace;font-size:81.755px;fill:#ebdd00;stroke:#ababab;stroke-opacity:0;stroke-width:1px;">Planned</text><g transform="matrix(163.380207,0,0,163.380207,1237.501261,1212.056734)"></g><text x="355.248px" y="1212.057px" style="font-family:'JetBrainsMono-Regular', 'JetBrains Mono', monospace;font-size:163.38px;fill:#ababab;stroke:#fff;stroke-opacity:0;stroke-width:1px;">Tailscale</text></g><g id="Docker"><path d="M2118.243,537.497l0,119.268c0,32.913 -26.721,59.634 -59.634,59.634l-900.44,0c-32.913,0 -59.634,-26.721 -59.634,-59.634l0,-119.268c0,-32.913 26.721,-59.634 59.634,-59.634l900.44,0c32.913,0 59.634,26.721 59.634,59.634Z" style="fill:#001866;stroke:#325fee;stroke-width:22.92px;stroke-linecap:round;stroke-miterlimit:1.5;"/><g transform="matrix(49.776175,0,0,49.776175,1735.810483,687.07307)"></g><text x="1257.959px" y="687.073px" style="font-family:'JetBrainsMono-Regular', 'JetBrains Mono', monospace;font-size:49.776px;fill:#ababab;stroke:#fff;stroke-opacity:0;stroke-width:1px;">Containerization</text><g transform="matrix(49.776175,0,0,49.776175,2054.186694,587.850186)"></g><text x="1785.395px" y="587.85px" style="font-family:'JetBrainsMono-Regular', 'JetBrains Mono', monospace;font-size:49.776px;fill:#ababab;stroke:#fff;stroke-opacity:0;stroke-width:1px;">Portainer</text><g transform="matrix(163.380207,0,0,163.380207,1740.316539,628.394799)"></g><text x="1152.148px" y="628.395px" style="font-family:'JetBrainsMono-Regular', 'JetBrains Mono', monospace;font-size:163.38px;fill:#ababab;stroke:#fff;stroke-opacity:0;stroke-width:1px;">DOCKER</text></g><g id="UBUNTU"><path d="M1987.117,835.04l0,119.268c0,32.913 -26.721,59.634 -59.634,59.634l-1574.329,0c-32.913,0 -59.634,-26.721 -59.634,-59.634l0,-119.268c0,-32.913 26.721,-59.634 59.634,-59.634l1574.329,0c32.913,0 59.634,26.721 59.634,59.634Z" style="fill:#001866;stroke:#325fee;stroke-width:21.65px;stroke-linecap:round;stroke-miterlimit:1.5;"/><g transform="matrix(163.380207,0,0,163.380207,1619.551503,922.753642)"></g><text x="345.186px" y="922.754px" style="font-family:'JetBrainsMono-Regular', 'JetBrains Mono', monospace;font-size:163.38px;fill:#ababab;stroke:#fff;stroke-opacity:0;stroke-width:1px;">DEBIAN/UBUNTU</text><g transform="matrix(1,0,0,1,-6946.903762,-678.928033)"><text x="7659.325px" y="1672.689px" style="font-family:'JetBrainsMono-Regular', 'JetBrains Mono', monospace;font-size:49.583px;fill:#ababab;stroke:#fff;stroke-opacity:0;stroke-width:1px;">Host</text><g transform="matrix(64.621949,0,0,64.621949,7894.644741,1672.688592)"></g><text x="7817.098px" y="1672.689px" style="font-family:'JetBrainsMono-Regular', 'JetBrains Mono', monospace;font-size:64.622px;fill:#ababab;stroke:#fff;stroke-opacity:0;stroke-width:1px;">OS</text></g><g transform="matrix(1,0,0,1,-5990.534795,-815.384951)"><text x="7659.325px" y="1672.689px" style="font-family:'JetBrainsMono-Regular', 'JetBrains Mono', monospace;font-size:49.583px;fill:#ababab;stroke:#fff;stroke-opacity:0;stroke-width:1px;">CLI based</text><g transform="matrix(49.583333,0,0,49.583333,7927.075232,1738.138592)"></g><text x="7659.325px" y="1738.139px" style="font-family:'JetBrainsMono-Regular', 'JetBrains Mono', monospace;font-size:49.583px;fill:#ababab;stroke:#fff;stroke-opacity:0;stroke-width:1px;">server OS</text></g></g></g><g id="Dcoker-runtime" serif:id="Dcoker runtime"><path d="M4550.277,1514.982l0,1182.593c0,81.586 -66.238,147.824 -147.824,147.824l-3991.891,0c-81.586,0 -147.824,-66.238 -147.824,-147.824l0,-1182.593c0,-81.586 66.238,-147.824 147.824,-147.824l3991.891,0c81.586,0 147.824,66.238 147.824,147.824Z" style="fill:#0e6928;stroke:#138f37;stroke-width:22.92px;stroke-linecap:round;stroke-miterlimit:1.5;"/><g id="services"><path d="M2068.54,1625.66l0,840.279c0,57.97 -47.065,105.035 -105.035,105.035l-1523.769,0c-57.97,0 -105.035,-47.065 -105.035,-105.035l0,-840.279c0,-57.97 47.065,-105.035 105.035,-105.035l1523.769,0c57.97,0 105.035,47.065 105.035,105.035Z" style="fill:#005b1a;stroke:#138f37;stroke-width:22.92px;stroke-linecap:round;stroke-miterlimit:1.5;"/><g transform="matrix(83.333333,0,0,83.333333,815.1976,1644.507487)"></g><text x="415.198px" y="1644.507px" style="font-family:'JetBrainsMono-Regular', 'JetBrains Mono', monospace;font-size:83.333px;fill:#d7d7d7;stroke:#fff;stroke-opacity:0;stroke-width:1px;">Services</text><g id="Portainer"><path d="M2010.226,1719.605l0,196.666c0,13.568 -11.015,24.583 -24.583,24.583l-1539.861,0c-13.568,0 -24.583,-11.015 -24.583,-24.583l0,-196.666c0,-13.568 11.015,-24.583 24.583,-24.583l1539.861,0c13.568,0 24.583,11.015 24.583,24.583Z" style="fill:#005b1a;stroke:#138f37;stroke-width:22.92px;stroke-linecap:round;stroke-miterlimit:1.5;"/><g transform="matrix(1,0,0,1,-4835.450826,-888.518583)"><text x="6221.614px" y="2667.608px" style="font-family:'JetBrainsMono-Regular', 'JetBrains Mono', monospace;font-size:50px;fill:#d7d7d7;stroke:#fff;stroke-opacity:0;stroke-width:1px;">management of</text><g transform="matrix(50,0,0,50,6731.614093,2728.395125)"></g><text x="6221.614px" y="2728.395px" style="font-family:'JetBrainsMono-Regular', 'JetBrains Mono', monospace;font-size:50px;fill:#d7d7d7;stroke:#fff;stroke-opacity:0;stroke-width:1px;">docker containers</text></g><g transform="matrix(162.5,0,0,162.5,1336.02827,1850.795483)"></g><text x="458.528px" y="1850.795px" style="font-family:'JetBrainsMono-Regular', 'JetBrains Mono', monospace;font-size:162.5px;fill:#d7d7d7;stroke:#fff;stroke-opacity:0;stroke-width:1px;">PORTAINER</text><g transform="matrix(50,0,0,50,1228.051612,1902.007452)"></g><text x="598.052px" y="1902.007px" style="font-family:'JetBrainsMono-Regular', 'JetBrains Mono', monospace;font-size:50px;fill:#d7d7d7;stroke:#fff;stroke-opacity:0;stroke-width:1px;">deployed on port 9000</text></g><g id="Glance"><g><path d="M2002.21,2013.594l0,192.165c0,13.257 -10.763,24.021 -24.021,24.021l-1532.971,0c-13.257,0 -24.021,-10.763 -24.021,-24.021l0,-192.165c0,-13.257 10.763,-24.021 24.021,-24.021l1532.971,0c13.257,0 24.021,10.763 24.021,24.021Z" style="fill:#005b1a;stroke:#138f37;stroke-width:22.92px;stroke-linecap:round;stroke-miterlimit:1.5;"/><g transform="matrix(162.5,0,0,162.5,1140.877782,2138.897376)"></g><text x="458.378px" y="2138.897px" style="font-family:'JetBrainsMono-Regular', 'JetBrains Mono', monospace;font-size:162.5px;fill:#d7d7d7;stroke:#fff;stroke-opacity:0;stroke-width:1px;">GLANCES</text></g><g><g transform="matrix(1,0,0,1,-5178.336178,-909.015671)"><text x="6563.149px" y="2974.65px" style="font-family:'JetBrainsMono-Regular', 'JetBrains Mono', monospace;font-size:50px;fill:#d7d7d7;stroke:#fff;stroke-opacity:0;stroke-width:1px;">General server</text><g transform="matrix(50,0,0,50,6833.149445,3039.414458)"></g><text x="6563.149px" y="3039.414px" style="font-family:'JetBrainsMono-Regular', 'JetBrains Mono', monospace;font-size:50px;fill:#d7d7d7;stroke:#fff;stroke-opacity:0;stroke-width:1px;">dashboard</text></g><g transform="matrix(50,0,0,50,1245.703935,2193.17629)"></g><text x="585.704px" y="2193.176px" style="font-family:'JetBrainsMono-Regular', 'JetBrains Mono', monospace;font-size:50px;fill:#d7d7d7;stroke:#fff;stroke-opacity:0;stroke-width:1px;">deployed on port 61208</text></g></g><g id="minecraft"><path d="M2010.226,2292.773l0,196.666c0,13.568 -11.015,24.583 -24.583,24.583l-1539.861,0c-13.568,0 -24.583,-11.015 -24.583,-24.583l0,-196.666c0,-13.568 11.015,-24.583 24.583,-24.583l1539.861,0c13.568,0 24.583,11.015 24.583,24.583Z" style="fill:#005b1a;stroke:#138f37;stroke-width:22.92px;stroke-linecap:round;stroke-miterlimit:1.5;"/><g transform="matrix(162.5,0,0,162.5,1141.02827,2423.963539)"></g><text x="458.528px" y="2423.964px" style="font-family:'JetBrainsMono-Regular', 'JetBrains Mono', monospace;font-size:162.5px;fill:#d7d7d7;stroke:#fff;stroke-opacity:0;stroke-width:1px;">Planned</text><g transform="matrix(85.231945,0,0,85.231945,1655.73657,2483.660849)"></g><text x="1195.484px" y="2483.661px" style="font-family:'JetBrainsMono-Regular', 'JetBrains Mono', monospace;font-size:85.232px;fill:#ffd928;stroke:#fff;stroke-opacity:0;stroke-width:1px;">Minecraft</text><g transform="matrix(85.231945,0,0,85.231945,1604.597403,2370.442504)"></g><text x="1195.484px" y="2370.443px" style="font-family:'JetBrainsMono-Regular', 'JetBrains Mono', monospace;font-size:85.232px;fill:#ffd928;stroke:#fff;stroke-opacity:0;stroke-width:1px;">Website,</text></g></g><path id="Data-processing" serif:id="Data processing" d="M4441.764,1623.689l0,831.447c0,57.361 -46.57,103.931 -103.931,103.931l-2036.603,0c-57.361,0 -103.931,-46.57 -103.931,-103.931l0,-831.447c0,-57.361 46.57,-103.931 103.931,-103.931l2036.603,0c57.361,0 103.931,46.57 103.931,103.931Z" style="fill:#005b1a;"/><clipPath id="_clip2"><path d="M4441.764,1623.689l0,831.447c0,57.361 -46.57,103.931 -103.931,103.931l-2036.603,0c-57.361,0 -103.931,-46.57 -103.931,-103.931l0,-831.447c0,-57.361 46.57,-103.931 103.931,-103.931l2036.603,0c57.361,0 103.931,46.57 103.931,103.931Z"/></clipPath><g clip-path="url(#_clip2)"><g transform="matrix(83.333333,0,0,83.333333,3036.130247,1634.835106)"></g><text x="2286.13px" y="1634.835px" style="font-family:'JetBrainsMono-Regular', 'JetBrains Mono', monospace;font-size:83.333px;fill:#fff;stroke:#fff;stroke-opacity:0;stroke-width:1px;">Data processing</text><g id="data-science" serif:id="data science"><path d="M4403.942,1776.721l0,654.012c0,45.12 -36.632,81.752 -81.752,81.752l-1989.914,0c-45.12,0 -81.752,-36.632 -81.752,-81.752l0,-654.012c0,-45.12 36.632,-81.752 81.752,-81.752l1989.914,0c45.12,0 81.752,36.632 81.752,81.752Z" style="fill:#005b1a;stroke:#138f37;stroke-width:22.92px;stroke-linecap:round;stroke-miterlimit:1.5;"/><g transform="matrix(179.93541,0,0,179.93541,3162.236202,2170.765527)"></g><text x="2406.507px" y="2170.766px" style="font-family:'JetBrainsMono-Regular', 'JetBrains Mono', monospace;font-size:179.935px;fill:#face00;stroke:#fff;stroke-opacity:0;stroke-width:1px;">planned</text><g transform="matrix(1,0,0,1,-5259.685394,-93.005185)"><text x="7602.507px" y="1940.854px" style="font-family:'JetBrainsMono-Regular', 'JetBrains Mono', monospace;font-size:126.908px;fill:#fff;stroke:#fff;stroke-opacity:0;stroke-width:1px;">DATA ANALYTICS AND</text><g transform="matrix(126.908212,0,0,126.908212,8516.246606,2065.85427)"></g><text x="7602.507px" y="2065.854px" style="font-family:'JetBrainsMono-Regular', 'JetBrains Mono', monospace;font-size:126.908px;fill:#fff;stroke:#fff;stroke-opacity:0;stroke-width:1px;">ECONOMETRICS</text></g></g></g><path d="M4441.764,1623.689l0,831.447c0,57.361 -46.57,103.931 -103.931,103.931l-2036.603,0c-57.361,0 -103.931,-46.57 -103.931,-103.931l0,-831.447c0,-57.361 46.57,-103.931 103.931,-103.931l2036.603,0c57.361,0 103.931,46.57 103.931,103.931Z" style="fill:none;stroke:#138f37;stroke-width:22.92px;stroke-linecap:round;stroke-miterlimit:1.5;"/><g transform="matrix(83.333333,0,0,83.333333,1631.656362,1477.274607)"></g><text x="331.656px" y="1477.275px" style="font-family:'JetBrainsMono-Regular', 'JetBrains Mono', monospace;font-size:83.333px;fill:#d7d7d7;stroke:#fff;stroke-opacity:0;stroke-width:1px;">Docker Runtime - Portainer</text></g><g id="Netqork-layer" serif:id="Netqork layer"><path d="M4550.277,607.659l0,259.593c0,71.637 -58.16,129.796 -129.796,129.796l-2112.298,0c-71.637,0 -129.796,-58.16 -129.796,-129.796l0,-259.593c0,-71.637 58.16,-129.796 129.796,-129.796l2112.298,0c71.637,0 129.796,58.16 129.796,129.796Z" style="fill:#ba4a02;stroke:#e25902;stroke-width:25px;stroke-linecap:round;stroke-miterlimit:1.5;"/><g id="PI--hole" serif:id="PI- hole"><path d="M3287.633,714.22l0,160.193c0,44.207 -35.89,80.097 -80.097,80.097l-869.175,0c-44.207,0 -80.097,-35.89 -80.097,-80.097l0,-160.193c0,-44.207 35.89,-80.097 80.097,-80.097l869.175,0c44.207,0 80.097,35.89 80.097,80.097Z" style="fill:#8f3800;stroke:#e25902;stroke-width:22.92px;stroke-linecap:round;stroke-miterlimit:1.5;"/><g transform="matrix(49.583333,0,0,49.583333,3232.213615,747.713941)"></g><text x="2994.214px" y="747.714px" style="font-family:'JetBrainsMono-Regular', 'JetBrains Mono', monospace;font-size:49.583px;fill:#d7d7d7;stroke:#fff;stroke-opacity:0;stroke-width:1px;">AD block</text><g transform="matrix(49.583333,0,0,49.583333,3118.422615,873.673998)"></g><text x="2820.923px" y="873.674px" style="font-family:'JetBrainsMono-Regular', 'JetBrains Mono', monospace;font-size:49.583px;fill:#d7d7d7;stroke:#fff;stroke-opacity:0;stroke-width:1px;">On port 53</text><g transform="matrix(1,0,0,1,-4075.383097,-1195.611124)"><text x="6381.905px" y="2044.554px" style="font-family:'JetBrainsMono-Regular', 'JetBrains Mono', monospace;font-size:49.583px;fill:#d7d7d7;stroke:#fff;stroke-opacity:0;stroke-width:1px;">Docker</text><text x="6587.357px" y="2044.554px" style="font-family:'JetBrainsMono-Regular', 'JetBrains Mono', monospace;font-size:44.92px;fill:#d7d7d7;stroke:#fff;stroke-opacity:0;stroke-width:1px;">container</text><g transform="matrix(49.583333,0,0,49.583333,6709.154701,2094.554421)"></g><text x="6381.905px" y="2094.554px" style="font-family:'JetBrainsMono-Regular', 'JetBrains Mono', monospace;font-size:49.583px;fill:#d7d7d7;stroke:#fff;stroke-opacity:0;stroke-width:1px;">host driver</text></g><g transform="matrix(162.5,0,0,162.5,2975.221604,789.176441)"></g><text x="2292.722px" y="789.176px" style="font-family:'JetBrainsMono-Regular', 'JetBrains Mono', monospace;font-size:162.5px;fill:#d7d7d7;stroke:#fff;stroke-opacity:0;stroke-width:1px;">PI-HOLE</text></g><g id="tailscale"><path d="M4490.877,714.22l0,160.193c0,44.207 -35.89,80.097 -80.097,80.097l-950.256,0c-44.207,0 -80.097,-35.89 -80.097,-80.097l0,-160.193c0,-44.207 35.89,-80.097 80.097,-80.097l950.256,0c44.207,0 80.097,35.89 80.097,80.097Z" style="fill:#8f3800;stroke:#e25902;stroke-width:22.92px;stroke-linecap:round;stroke-miterlimit:1.5;"/><text x="3415.227px" y="792.817px" style="font-family:'JetBrainsMono-Regular', 'JetBrains Mono', monospace;font-size:150px;fill:#fff;stroke:#fff;stroke-opacity:0;stroke-width:1px;">Planned</text><g transform="matrix(89.840732,0,0,89.840732,4159.693067,904.249744)"></g><text x="3890.171px" y="904.25px" style="font-family:'JetBrainsMono-Regular', 'JetBrains Mono', monospace;font-size:89.841px;fill:#ffd928;stroke:#fff;stroke-opacity:0;stroke-width:1px;">Nginx</text></g><g transform="matrix(83.333333,0,0,83.333333,2923.185313,592.102363)"></g><text x="2273.185px" y="592.102px" style="font-family:'JetBrainsMono-Regular', 'JetBrains Mono', monospace;font-size:83.333px;fill:#d7d7d7;stroke:#fff;stroke-opacity:0;stroke-width:1px;">Network Layer</text></g><path d="M1545.452,1685.491l-29.898,12.805l-12.805,-29.898" style="fill:none;stroke:#fcb22b;stroke-width:15.33px;stroke-linecap:round;stroke-linejoin:miter;stroke-miterlimit:10;"/><path d="M2062.278,720.82c-2.441,-3.456 -1.616,-8.244 1.84,-10.684c3.456,-2.441 8.244,-1.616 10.684,1.84c0,0 15.922,22.46 30.473,61.385c1.482,3.963 -0.533,8.384 -4.497,9.865c-3.963,1.482 -8.384,-0.533 -9.865,-4.497c-13.716,-36.693 -28.636,-57.91 -28.636,-57.91Zm51.12,185.798c0.047,-4.231 3.52,-7.628 7.751,-7.581c4.231,0.047 7.628,3.52 7.581,7.751c-0.446,40.217 -7.582,85.055 -26.002,132.901c-1.52,3.949 -5.96,5.92 -9.909,4.4c-3.949,-1.52 -5.92,-5.96 -4.4,-9.909c17.681,-45.926 24.551,-88.96 24.979,-127.563Zm-89.482,241.391c2.553,-3.374 7.366,-4.04 10.739,-1.486c3.374,2.553 4.04,7.366 1.486,10.739c-24.409,32.25 -54.679,65.194 -91.959,98.42c-3.159,2.815 -8.009,2.536 -10.824,-0.622c-2.815,-3.159 -2.536,-8.009 0.622,-10.824c36.454,-32.49 66.067,-64.691 89.935,-96.227Zm-194.707,176.984c3.508,-2.366 8.277,-1.439 10.642,2.069c2.366,3.508 1.439,8.277 -2.069,10.642c-17.765,11.982 -36.555,23.959 -56.438,35.922c-1.41,0.964 -11.7,8.069 -27.692,20.988c-3.291,2.659 -8.122,2.145 -10.781,-1.146c-2.659,-3.291 -2.145,-8.122 1.146,-10.781c17.894,-14.455 28.917,-21.884 28.917,-21.884c0.11,-0.075 0.223,-0.146 0.337,-0.215c19.7,-11.848 38.328,-23.719 55.937,-35.595Zm-138.951,105.433c3.038,-2.945 7.895,-2.869 10.84,0.169c2.945,3.038 2.869,7.895 -0.169,10.84c-15.244,14.777 -31.717,31.871 -48.563,51.194c-2.78,3.189 -7.627,3.521 -10.816,0.741c-3.189,-2.78 -3.521,-7.627 -0.741,-10.816c17.153,-19.676 33.927,-37.081 49.449,-52.128Zm-94.296,108.292c2.492,-3.419 7.291,-4.172 10.711,-1.68c3.419,2.492 4.172,7.291 1.68,10.711c-13.317,18.273 -26.403,37.893 -38.835,58.82c-2.161,3.638 -6.869,4.836 -10.506,2.675c-3.638,-2.161 -4.836,-6.869 -2.675,-10.506c12.685,-21.353 26.038,-41.374 39.625,-60.019Zm-73.24,123.662c1.781,-3.838 6.343,-5.508 10.181,-3.727c3.838,1.781 5.508,6.343 3.727,10.181c-4.879,10.514 -9.545,21.286 -13.958,32.311c-1.572,3.928 -6.038,5.841 -9.966,4.268c-3.928,-1.572 -5.841,-6.038 -4.268,-9.966c4.516,-11.283 9.291,-22.307 14.285,-33.068Z" style="fill:#fcb22b;"/><path d="M411.558,2077.136l9.64,31.064l-31.064,9.64" style="fill:none;stroke:#fcb22b;stroke-width:15.33px;stroke-linecap:round;stroke-linejoin:miter;stroke-miterlimit:10;"/><path d="M416.089,1812.221c3.155,-2.819 8.005,-2.547 10.825,0.608c2.819,3.155 2.547,8.005 -0.608,10.825c-6.923,6.186 -13.332,12.666 -19.233,19.386c-2.792,3.179 -7.64,3.494 -10.819,0.702c-3.179,-2.792 -3.494,-7.64 -0.702,-10.819c6.301,-7.175 13.145,-14.095 20.537,-20.701Zm-53.214,68.966c1.907,-3.777 6.521,-5.296 10.298,-3.389c3.777,1.907 5.296,6.521 3.389,10.298c-8.423,16.688 -14.351,33.983 -17.825,51.264c-0.834,4.148 -4.879,6.839 -9.027,6.005c-4.148,-0.834 -6.839,-4.879 -6.005,-9.027c3.737,-18.591 10.107,-37.199 19.169,-55.152Zm-22.231,113.646c-0.424,-4.21 2.649,-7.972 6.859,-8.396c4.21,-0.424 7.972,2.649 8.396,6.859c1.844,18.3 6.642,35.77 14.358,51.539c1.86,3.801 0.284,8.396 -3.517,10.256c-3.801,1.86 -8.396,0.284 -10.256,-3.517c-8.496,-17.363 -13.811,-36.591 -15.841,-56.741Zm52.204,103.545c-3.242,-2.718 -3.668,-7.558 -0.949,-10.8c2.718,-3.242 7.558,-3.668 10.8,-0.949c6.669,5.592 14.029,10.554 22.07,14.787c3.744,1.971 5.184,6.61 3.213,10.355c-1.971,3.744 -6.61,5.184 -10.355,3.213c-9.029,-4.752 -17.291,-10.327 -24.779,-16.605Z" style="fill:#fcb22b;"/><path d="M418.715,2353.532l2.482,32.43l-32.43,2.482" style="fill:none;stroke:#fcb22b;stroke-width:15.33px;stroke-linecap:round;stroke-linejoin:miter;stroke-miterlimit:10;"/><path d="M416.308,1812.033c3.259,-2.699 8.096,-2.244 10.794,1.015c2.699,3.259 2.244,8.096 -1.015,10.794c-12.285,10.173 -24.614,22.72 -36.51,37.235c-2.682,3.272 -7.516,3.752 -10.789,1.07c-3.272,-2.682 -3.752,-7.516 -1.07,-10.789c12.569,-15.335 25.61,-28.577 38.59,-39.325Zm-95.478,132.456c1.729,-3.862 6.268,-5.593 10.13,-3.865c3.862,1.729 5.593,6.268 3.865,10.13c-13.843,30.921 -24.699,64.92 -30.8,100.596c-0.713,4.171 -4.678,6.977 -8.849,6.264c-4.171,-0.713 -6.977,-4.678 -6.264,-8.849c6.324,-36.98 17.57,-72.224 31.919,-104.276Zm-35.039,213.475c-0.505,-4.201 2.495,-8.022 6.696,-8.527c4.201,-0.505 8.022,2.495 8.527,6.696c4.034,33.547 13.206,67.369 28.784,100.461c1.802,3.828 0.157,8.399 -3.671,10.201c-3.828,1.802 -8.399,0.157 -10.201,-3.671c-16.307,-34.64 -25.912,-70.044 -30.135,-105.161Zm91.194,195.794c-2.844,-3.133 -2.609,-7.985 0.524,-10.829c3.133,-2.844 7.985,-2.609 10.829,0.524c11.363,12.518 23.953,24.77 37.85,36.69c3.211,2.755 3.582,7.599 0.827,10.81c-2.755,3.211 -7.599,3.582 -10.81,0.827c-14.401,-12.353 -27.445,-25.051 -39.22,-38.023Z" style="fill:#fcb22b;"/><path d="M2389.474,989.296l17.034,-27.708l27.708,17.034" style="fill:none;stroke:#fcb22b;stroke-width:15.33px;stroke-linecap:round;stroke-linejoin:miter;stroke-miterlimit:10;"/><path d="M2013.125,1825.035c-3.917,1.6 -8.396,-0.281 -9.996,-4.197c-1.6,-3.917 0.281,-8.396 4.197,-9.996c12.61,-5.152 24.883,-10.964 36.823,-17.386c3.726,-2.004 8.379,-0.606 10.383,3.12c2.004,3.726 0.606,8.379 -3.12,10.383c-12.415,6.677 -25.175,12.72 -38.286,18.076Zm108.394,-65.112c-3.282,2.671 -8.114,2.174 -10.785,-1.108c-2.671,-3.282 -2.174,-8.114 1.108,-10.785c20.931,-17.032 40.616,-36.025 59.097,-56.59c2.828,-3.147 7.679,-3.406 10.826,-0.578c3.147,2.828 3.406,7.679 0.578,10.826c-19.02,21.165 -39.283,40.706 -60.824,58.234Zm112.812,-124.217c-2.414,3.475 -7.195,4.337 -10.67,1.923c-3.475,-2.414 -4.337,-7.195 -1.923,-10.67c15.508,-22.327 29.945,-45.755 43.343,-69.946c2.05,-3.701 6.719,-5.042 10.421,-2.992c3.701,2.05 5.042,6.719 2.992,10.421c-13.652,24.648 -28.362,48.516 -44.163,71.265Zm81.517,-146.188c-1.731,3.861 -6.271,5.59 -10.132,3.859c-3.861,-1.731 -5.59,-6.271 -3.859,-10.132c11.292,-25.184 21.595,-50.793 30.942,-76.501c1.446,-3.976 5.848,-6.031 9.824,-4.585c3.976,1.446 6.031,5.848 4.585,9.824c-9.473,26.056 -19.917,52.011 -31.361,77.536Zm57.289,-157.001c-1.181,4.063 -5.438,6.403 -9.501,5.222c-4.063,-1.181 -6.403,-5.438 -5.222,-9.501c7.864,-27.058 14.694,-53.855 20.528,-80.007c0.921,-4.13 5.022,-6.734 9.151,-5.813c4.13,0.921 6.734,5.022 5.813,9.151c-5.903,26.459 -12.813,53.572 -20.77,80.948Zm36.291,-163.09c-0.644,4.182 -4.562,7.054 -8.744,6.41c-4.182,-0.644 -7.054,-4.562 -6.41,-8.744c4.471,-29.032 7.58,-56.556 9.388,-81.914c0.301,-4.22 3.972,-7.403 8.192,-7.102c4.22,0.301 7.403,3.972 7.102,8.192c-1.835,25.743 -4.989,53.685 -9.528,83.157Zm10.436,-167.248c0.285,4.221 -2.91,7.88 -7.132,8.166c-4.221,0.285 -7.88,-2.91 -8.166,-7.132c-1.04,-15.389 -2.88,-28.794 -5.517,-39.847c-0.982,-4.116 1.562,-8.254 5.678,-9.236c4.116,-0.982 8.254,1.562 9.236,5.678c2.804,11.754 4.794,26.005 5.901,42.371Z" style="fill:#fcb22b;"/></g></svg>