<?xml version="1.0" encoding="UTF-8" standalone="no"?><!DOCTYPE svg PUBLIC "-//W3C//DTD SVG 1.1//EN" "http://www.w3.org/Graphics/SVG/1.1/DTD/svg11.dtd"><svg width="100%" height="100%" viewBox="0 0 1158 819" version="1.1" xmlns="http://www.w3.org/2000/svg" xmlns:xlink="http://www.w3.org/1999/xlink" xml:space="preserve" xmlns:serif="http://www.serif.com/" style="fill-rule:evenodd;clip-rule:evenodd;stroke-linejoin:round;stroke-miterlimit:2;"><rect id="creanm" x="0" y="0" width="1157.48" height="818.504" style="fill:none;"/><clipPath id="_clip1"><rect x="0" y="0" width="1157.48" height="818.504"/></clipPath><g clip-path="url(#_clip1)"><rect x="-2.299" y="-19.574" width="1244.47" height="846.306"/><g id="host-pc" serif:id="host pc"><path d="M1128.076,56.933l0,698.451c0,21.416 -17.387,38.803 -38.803,38.803l-1021.066,0c-21.416,0 -38.803,-17.387 -38.803,-38.803l0,-698.451c0,-21.416 17.387,-38.803 38.803,-38.803l1021.066,0c21.416,0 38.803,17.387 38.803,38.803Z" style="fill:#103bc7;fill-opacity:0.22;"/><path d="M1123.647,42.698c-0.339,-0.818 0.049,-1.757 0.867,-2.097c0.818,-0.339 1.757,0.049 2.097,0.867c1.978,4.765 3.07,9.988 3.07,15.465l0,8.315c0,0.885 -0.719,1.604 -1.604,1.604c-0.885,0 -1.604,-0.719 -1.604,-1.604l-0,-8.315c0,-5.041 -1.005,-9.85 -2.825,-14.235Zm2.825,39.18c0,-0.885 0.719,-1.604 1.604,-1.604c0.885,0 1.604,0.719 1.604,1.604l0,16.63c0,0.885 -0.719,1.604 -1.604,1.604c-0.885,0 -1.604,-0.719 -1.604,-1.604l-0,-16.63Zm0,33.259c0,-0.885 0.719,-1.604 1.604,-1.604c0.885,0 1.604,0.719 1.604,1.604l-0,16.629c0,0.885 -0.719,1.604 -1.604,1.604c-0.885,0 -1.604,-0.719 -1.604,-1.604l0,-16.629Zm0,33.26c0,-0.885 0.719,-1.604 1.604,-1.604c0.885,0 1.604,0.719 1.604,1.604l0,16.63c0,0.885 -0.719,1.604 -1.604,1.604c-0.885,0 -1.604,-0.719 -1.604,-1.604l0,-16.63Zm0,33.26c0,-0.885 0.719,-1.604 1.604,-1.604c0.885,0 1.604,0.719 1.604,1.604l0,16.63c0,0.885 -0.719,1.604 -1.604,1.604c-0.885,0 -1.604,-0.719 -1.604,-1.604l0,-16.63Zm-0,33.259c0,-0.885 0.719,-1.604 1.604,-1.604c0.885,0 1.604,0.719 1.604,1.604l0,16.63c0,0.885 -0.719,1.604 -1.604,1.604c-0.885,0 -1.604,-0.719 -1.604,-1.604l0,-16.63Zm0,33.259c0,-0.885 0.719,-1.604 1.604,-1.604c0.885,0 1.604,0.719 1.604,1.604l0,16.629c0,0.885 -0.719,1.604 -1.604,1.604c-0.885,0 -1.604,-0.719 -1.604,-1.604l0,-16.629Zm0,33.26c0,-0.885 0.719,-1.604 1.604,-1.604c0.885,0 1.604,0.719 1.604,1.604l0,16.629c0,0.885 -0.719,1.604 -1.604,1.604c-0.885,0 -1.604,-0.719 -1.604,-1.604l0,-16.629Zm0,33.26c0,-0.885 0.719,-1.604 1.604,-1.604c0.885,0 1.604,0.719 1.604,1.604l0,16.63c0,0.885 -0.719,1.604 -1.604,1.604c-0.885,0 -1.604,-0.719 -1.604,-1.604l0,-16.63Zm0,33.26c0,-0.885 0.719,-1.604 1.604,-1.604c0.885,0 1.604,0.719 1.604,1.604l0,16.63c0,0.885 -0.719,1.604 -1.604,1.604c-0.885,0 -1.604,-0.719 -1.604,-1.604l0,-16.63Zm0,33.26c0,-0.885 0.719,-1.604 1.604,-1.604c0.885,0 1.604,0.719 1.604,1.604l0,16.63c0,0.885 -0.719,1.604 -1.604,1.604c-0.885,0 -1.604,-0.719 -1.604,-1.604l0,-16.63Zm0,33.26c0,-0.885 0.719,-1.604 1.604,-1.604c0.885,0 1.604,0.719 1.604,1.604l-0,16.63c0,0.885 -0.719,1.604 -1.604,1.604c-0.885,0 -1.604,-0.719 -1.604,-1.604l0,-16.63Zm0,33.26c0,-0.885 0.719,-1.604 1.604,-1.604c0.885,0 1.604,0.719 1.604,1.604l-0,16.63c0,0.885 -0.719,1.604 -1.604,1.604c-0.885,0 -1.604,-0.719 -1.604,-1.604l0,-16.63Zm0,33.259c0,-0.885 0.719,-1.604 1.604,-1.604c0.885,0 1.604,0.719 1.604,1.604l0,16.63c0,0.885 -0.719,1.604 -1.604,1.604c-0.885,0 -1.604,-0.719 -1.604,-1.604l0,-16.63Zm0,33.259c0,-0.885 0.719,-1.604 1.604,-1.604c0.885,0 1.604,0.719 1.604,1.604l0,16.63c0,0.885 -0.719,1.604 -1.604,1.604c-0.885,0 -1.604,-0.719 -1.604,-1.604l-0,-16.63Zm0,33.259c0,-0.885 0.719,-1.604 1.604,-1.604c0.885,0 1.604,0.719 1.604,1.604l0,16.63c0,0.885 -0.719,1.604 -1.604,1.604c-0.885,0 -1.604,-0.719 -1.604,-1.604l0,-16.63Zm0,33.26c0,-0.885 0.719,-1.604 1.604,-1.604c0.885,0 1.604,0.719 1.604,1.604l0,16.63c0,0.885 -0.719,1.604 -1.604,1.604c-0.885,0 -1.604,-0.719 -1.604,-1.604l-0,-16.63Zm0,33.26c0,-0.885 0.719,-1.604 1.604,-1.604c0.885,0 1.604,0.719 1.604,1.604l0,16.63c0,0.885 -0.719,1.604 -1.604,1.604c-0.885,0 -1.604,-0.719 -1.604,-1.604l0,-16.63Zm0,33.259c0,-0.885 0.719,-1.604 1.604,-1.604c0.885,0 1.604,0.719 1.604,1.604l0,16.63c0,0.885 -0.719,1.604 -1.604,1.604c-0.885,0 -1.604,-0.719 -1.604,-1.604l0,-16.63Zm0,33.26c0,-0.885 0.719,-1.604 1.604,-1.604c0.885,0 1.604,0.719 1.604,1.604l0,16.63c0,0.885 -0.719,1.604 -1.604,1.604c-0.885,0 -1.604,-0.719 -1.604,-1.604l0,-16.63Zm0,33.259c0,-0.885 0.719,-1.604 1.604,-1.604c0.885,0 1.604,0.719 1.604,1.604l0,16.63c0,0.885 -0.719,1.604 -1.604,1.604c-0.885,0 -1.604,-0.719 -1.604,-1.604l-0,-16.63Zm0,33.26c0,-0.885 0.719,-1.604 1.604,-1.604c0.885,0 1.604,0.719 1.604,1.604l-0,8.315c0,5.477 -1.092,10.7 -3.07,15.465c-0.339,0.818 -1.279,1.206 -2.097,0.867c-0.818,-0.339 -1.206,-1.279 -0.867,-2.097c1.82,-4.386 2.825,-9.194 2.825,-14.235l0,-8.315Zm-22.963,42.688c0.818,-0.339 1.757,0.049 2.097,0.867c0.339,0.818 -0.049,1.757 -0.867,2.097c-4.765,1.978 -9.988,3.07 -15.465,3.07l-8.234,0c-0.885,0 -1.604,-0.719 -1.604,-1.604c0,-0.885 0.719,-1.604 1.604,-1.604l8.234,0c5.041,0 9.85,-1.005 14.235,-2.825Zm-38.938,2.825c0.885,0 1.604,0.719 1.604,1.604c0,0.885 -0.719,1.604 -1.604,1.604l-16.468,0c-0.885,0 -1.604,-0.719 -1.604,-1.604c0,-0.885 0.719,-1.604 1.604,-1.604l16.468,0Zm-32.938,0c0.885,0 1.604,0.719 1.604,1.604c0,0.885 -0.719,1.604 -1.604,1.604l-16.469,0c-0.885,0 -1.604,-0.719 -1.604,-1.604c0,-0.885 0.719,-1.604 1.604,-1.604l16.469,0Zm-32.937,0c0.885,0 1.604,0.719 1.604,1.604c0,0.885 -0.719,1.604 -1.604,1.604l-16.469,0c-0.885,0 -1.604,-0.719 -1.604,-1.604c0,-0.885 0.719,-1.604 1.604,-1.604l16.469,0Zm-32.938,0c0.885,0 1.604,0.719 1.604,1.604c0,0.885 -0.719,1.604 -1.604,1.604l-16.469,0c-0.885,0 -1.604,-0.719 -1.604,-1.604c0,-0.885 0.719,-1.604 1.604,-1.604l16.469,0Zm-32.937,0c0.885,0 1.604,0.719 1.604,1.604c0,0.885 -0.719,1.604 -1.604,1.604l-16.469,0c-0.885,0 -1.604,-0.719 -1.604,-1.604c0,-0.885 0.719,-1.604 1.604,-1.604l16.469,0Zm-32.937,0c0.885,0 1.604,0.719 1.604,1.604c0,0.885 -0.719,1.604 -1.604,1.604l-16.468,0c-0.885,0 -1.604,-0.719 -1.604,-1.604c0,-0.885 0.719,-1.604 1.604,-1.604l16.468,0Zm-32.939,0c0.885,0 1.604,0.719 1.604,1.604c0,0.885 -0.719,1.604 -1.604,1.604l-16.47,0c-0.885,0 -1.604,-0.719 -1.604,-1.604c0,-0.885 0.719,-1.604 1.604,-1.604l16.47,0Zm-32.937,0c0.885,0 1.604,0.719 1.604,1.604c0,0.885 -0.719,1.604 -1.604,1.604l-16.469,0c-0.885,0 -1.604,-0.719 -1.604,-1.604c0,-0.885 0.719,-1.604 1.604,-1.604l16.469,0Zm-32.936,0c0.885,0 1.604,0.719 1.604,1.604c0,0.885 -0.719,1.604 -1.604,1.604l-16.469,0c-0.885,0 -1.604,-0.719 -1.604,-1.604c0,-0.885 0.719,-1.604 1.604,-1.604l16.469,0Zm-32.938,0c0.885,0 1.604,0.719 1.604,1.604c0,0.885 -0.719,1.604 -1.604,1.604l-16.469,0c-0.885,0 -1.604,-0.719 -1.604,-1.604c0,-0.885 0.719,-1.604 1.604,-1.604l16.469,0Zm-32.938,0c0.885,0 1.604,0.719 1.604,1.604c0,0.885 -0.719,1.604 -1.604,1.604l-16.469,0c-0.885,0 -1.604,-0.719 -1.604,-1.604c0,-0.885 0.719,-1.604 1.604,-1.604l16.469,-0Zm-32.939,0c0.885,0 1.604,0.719 1.604,1.604c0,0.885 -0.719,1.604 -1.604,1.604l-16.468,0c-0.885,0 -1.604,-0.719 -1.604,-1.604c0,-0.885 0.719,-1.604 1.604,-1.604l16.468,0Zm-32.938,0c0.885,0 1.604,0.719 1.604,1.604c0,0.885 -0.719,1.604 -1.604,1.604l-16.469,0c-0.885,0 -1.604,-0.719 -1.604,-1.604c0,-0.885 0.719,-1.604 1.604,-1.604l16.469,0Zm-32.937,0c0.885,0 1.604,0.719 1.604,1.604c0,0.885 -0.719,1.604 -1.604,1.604l-16.468,0c-0.885,0 -1.604,-0.719 -1.604,-1.604c0,-0.885 0.719,-1.604 1.604,-1.604l16.468,0Zm-32.936,0c0.885,0 1.604,0.719 1.604,1.604c0,0.885 -0.719,1.604 -1.604,1.604l-16.47,0c-0.885,0 -1.604,-0.719 -1.604,-1.604c0,-0.885 0.719,-1.604 1.604,-1.604l16.47,0Zm-32.937,0c0.885,0 1.604,0.719 1.604,1.604c0,0.885 -0.719,1.604 -1.604,1.604l-16.469,0c-0.885,0 -1.604,-0.719 -1.604,-1.604c0,-0.885 0.719,-1.604 1.604,-1.604l16.469,0Zm-32.939,0c0.885,0 1.604,0.719 1.604,1.604c0,0.885 -0.719,1.604 -1.604,1.604l-16.468,0c-0.885,0 -1.604,-0.719 -1.604,-1.604c0,-0.885 0.719,-1.604 1.604,-1.604l16.468,0Zm-32.937,0c0.885,0 1.604,0.719 1.604,1.604c0,0.885 -0.719,1.604 -1.604,1.604l-16.469,0c-0.885,0 -1.604,-0.719 -1.604,-1.604c0,-0.885 0.719,-1.604 1.604,-1.604l16.469,0Zm-32.939,0c0.885,0 1.604,0.719 1.604,1.604c0,0.885 -0.719,1.604 -1.604,1.604l-16.469,0c-0.885,0 -1.604,-0.719 -1.604,-1.604c0,-0.885 0.719,-1.604 1.604,-1.604l16.469,0Zm-32.938,0c0.885,0 1.604,0.719 1.604,1.604c0,0.885 -0.719,1.604 -1.604,1.604l-16.469,0c-0.885,0 -1.604,-0.719 -1.604,-1.604c0,-0.885 0.719,-1.604 1.604,-1.604l16.469,0Zm-32.935,0c0.885,0 1.604,0.719 1.604,1.604c0,0.885 -0.719,1.604 -1.604,1.604l-16.469,0c-0.885,0 -1.604,-0.719 -1.604,-1.604c0,-0.885 0.719,-1.604 1.604,-1.604l16.469,0Zm-32.94,0c0.885,0 1.604,0.719 1.604,1.604c0,0.885 -0.719,1.604 -1.604,1.604l-16.469,0c-0.885,0 -1.604,-0.719 -1.604,-1.604c0,-0.885 0.719,-1.604 1.604,-1.604l16.469,0Zm-32.937,0c0.885,0 1.604,0.719 1.604,1.604c0,0.885 -0.719,1.604 -1.604,1.604l-16.469,0c-0.885,0 -1.604,-0.719 -1.604,-1.604c0,-0.885 0.719,-1.604 1.604,-1.604l16.469,0Zm-32.938,0c0.885,0 1.604,0.719 1.604,1.604c0,0.885 -0.719,1.604 -1.604,1.604l-16.469,0c-0.885,0 -1.604,-0.719 -1.604,-1.604c0,-0.885 0.719,-1.604 1.604,-1.604l16.469,0Zm-32.935,0c0.885,0 1.604,0.719 1.604,1.604c0,0.885 -0.719,1.604 -1.604,1.604l-16.469,0c-0.885,0 -1.604,-0.719 -1.604,-1.604c0,-0.885 0.719,-1.604 1.604,-1.604l16.469,0Zm-32.939,0c0.885,0 1.604,0.719 1.604,1.604c0,0.885 -0.719,1.604 -1.604,1.604l-16.469,0c-0.885,0 -1.604,-0.719 -1.604,-1.604c0,-0.885 0.719,-1.604 1.604,-1.604l16.469,0Zm-32.937,0c0.885,0 1.604,0.719 1.604,1.604c0,0.885 -0.719,1.604 -1.604,1.604l-16.469,0c-0.885,0 -1.604,-0.719 -1.604,-1.604c0,-0.885 0.719,-1.604 1.604,-1.604l16.469,0Zm-32.939,0c0.885,0 1.604,0.719 1.604,1.604c0,0.885 -0.719,1.604 -1.604,1.604l-16.469,0c-0.885,0 -1.604,-0.719 -1.604,-1.604c0,-0.885 0.719,-1.604 1.604,-1.604l16.469,0Zm-32.937,0c0.885,0 1.604,0.719 1.604,1.604c0,0.885 -0.719,1.604 -1.604,1.604l-16.469,0c-0.885,0 -1.604,-0.719 -1.604,-1.604c0,-0.885 0.719,-1.604 1.604,-1.604l16.469,0Zm-32.938,0c0.885,0 1.604,0.719 1.604,1.604c0,0.885 -0.719,1.604 -1.604,1.604l-16.469,0c-0.885,0 -1.604,-0.719 -1.604,-1.604c0,-0.885 0.719,-1.604 1.604,-1.604l16.469,0Zm-32.937,0c0.885,0 1.604,0.719 1.604,1.604c0,0.885 -0.719,1.604 -1.604,1.604l-8.234,0c-5.477,0 -10.7,-1.092 -15.465,-3.07c-0.818,-0.339 -1.206,-1.279 -0.867,-2.097c0.339,-0.818 1.279,-1.206 2.097,-0.867c4.386,1.82 9.194,2.825 14.235,2.825l8.234,0Zm-42.608,-22.963c0.339,0.818 -0.049,1.757 -0.867,2.097c-0.818,0.339 -1.757,-0.049 -2.097,-0.867c-1.978,-4.765 -3.07,-9.988 -3.07,-15.465l0,-8.315c0,-0.885 0.719,-1.604 1.604,-1.604c0.885,0 1.604,0.719 1.604,1.604l0,8.315c0,5.041 1.005,9.85 2.825,14.235Zm-2.825,-39.18c0,0.885 -0.719,1.604 -1.604,1.604c-0.885,0 -1.604,-0.719 -1.604,-1.604l0,-16.63c0,-0.885 0.719,-1.604 1.604,-1.604c0.885,0 1.604,0.719 1.604,1.604l-0,16.63Zm0,-33.259c0,0.885 -0.719,1.604 -1.604,1.604c-0.885,0 -1.604,-0.719 -1.604,-1.604l0,-16.629c0,-0.885 0.719,-1.604 1.604,-1.604c0.885,0 1.604,0.719 1.604,1.604l0,16.629Zm-0,-33.26c0,0.885 -0.719,1.604 -1.604,1.604c-0.885,0 -1.604,-0.719 -1.604,-1.604l0,-16.63c0,-0.885 0.719,-1.604 1.604,-1.604c0.885,0 1.604,0.719 1.604,1.604l0,16.63Zm0,-33.26c0,0.885 -0.719,1.604 -1.604,1.604c-0.885,0 -1.604,-0.719 -1.604,-1.604l0,-16.63c0,-0.885 0.719,-1.604 1.604,-1.604c0.885,0 1.604,0.719 1.604,1.604l0,16.63Zm0,-33.259c0,0.885 -0.719,1.604 -1.604,1.604c-0.885,0 -1.604,-0.719 -1.604,-1.604l0,-16.63c0,-0.885 0.719,-1.604 1.604,-1.604c0.885,0 1.604,0.719 1.604,1.604l0,16.63Zm0,-33.259c0,0.885 -0.719,1.604 -1.604,1.604c-0.885,0 -1.604,-0.719 -1.604,-1.604l0,-16.629c0,-0.885 0.719,-1.604 1.604,-1.604c0.885,0 1.604,0.719 1.604,1.604l0,16.629Zm0,-33.26c0,0.885 -0.719,1.604 -1.604,1.604c-0.885,0 -1.604,-0.719 -1.604,-1.604l0,-16.629c0,-0.885 0.719,-1.604 1.604,-1.604c0.885,0 1.604,0.719 1.604,1.604l0,16.629Zm0,-33.26c0,0.885 -0.719,1.604 -1.604,1.604c-0.885,0 -1.604,-0.719 -1.604,-1.604l0,-16.63c0,-0.885 0.719,-1.604 1.604,-1.604c0.885,0 1.604,0.719 1.604,1.604l-0,16.63Zm0,-33.26c0,0.885 -0.719,1.604 -1.604,1.604c-0.885,0 -1.604,-0.719 -1.604,-1.604l0,-16.63c0,-0.885 0.719,-1.604 1.604,-1.604c0.885,0 1.604,0.719 1.604,1.604l0,16.63Zm-0,-33.26c0,0.885 -0.719,1.604 -1.604,1.604c-0.885,0 -1.604,-0.719 -1.604,-1.604l0,-16.63c0,-0.885 0.719,-1.604 1.604,-1.604c0.885,0 1.604,0.719 1.604,1.604l0,16.63Zm0,-33.26c0,0.885 -0.719,1.604 -1.604,1.604c-0.885,0 -1.604,-0.719 -1.604,-1.604l0,-16.63c0,-0.885 0.719,-1.604 1.604,-1.604c0.885,0 1.604,0.719 1.604,1.604l0,16.63Zm0,-33.26c0,0.885 -0.719,1.604 -1.604,1.604c-0.885,0 -1.604,-0.719 -1.604,-1.604l0,-16.63c0,-0.885 0.719,-1.604 1.604,-1.604c0.885,0 1.604,0.719 1.604,1.604l0,16.63Zm0,-33.259c0,0.885 -0.719,1.604 -1.604,1.604c-0.885,0 -1.604,-0.719 -1.604,-1.604l0,-16.63c0,-0.885 0.719,-1.604 1.604,-1.604c0.885,0 1.604,0.719 1.604,1.604l0,16.63Zm0,-33.259c0,0.885 -0.719,1.604 -1.604,1.604c-0.885,0 -1.604,-0.719 -1.604,-1.604l0,-16.63c0,-0.885 0.719,-1.604 1.604,-1.604c0.885,0 1.604,0.719 1.604,1.604l0,16.63Zm0,-33.259c0,0.885 -0.719,1.604 -1.604,1.604c-0.885,0 -1.604,-0.719 -1.604,-1.604l0,-16.63c0,-0.885 0.719,-1.604 1.604,-1.604c0.885,0 1.604,0.719 1.604,1.604l0,16.63Zm0,-33.26c0,0.885 -0.719,1.604 -1.604,1.604c-0.885,0 -1.604,-0.719 -1.604,-1.604l0,-16.63c0,-0.885 0.719,-1.604 1.604,-1.604c0.885,0 1.604,0.719 1.604,1.604l-0,16.63Zm0,-33.26c0,0.885 -0.719,1.604 -1.604,1.604c-0.885,0 -1.604,-0.719 -1.604,-1.604l0,-16.63c0,-0.885 0.719,-1.604 1.604,-1.604c0.885,0 1.604,0.719 1.604,1.604l0,16.63Zm0,-33.259c0,0.885 -0.719,1.604 -1.604,1.604c-0.885,0 -1.604,-0.719 -1.604,-1.604l-0,-16.63c0,-0.885 0.719,-1.604 1.604,-1.604c0.885,0 1.604,0.719 1.604,1.604l0,16.63Zm-0,-33.26c0,0.885 -0.719,1.604 -1.604,1.604c-0.885,0 -1.604,-0.719 -1.604,-1.604l0,-16.63c0,-0.885 0.719,-1.604 1.604,-1.604c0.885,0 1.604,0.719 1.604,1.604l0,16.63Zm0,-33.259c0,0.885 -0.719,1.604 -1.604,1.604c-0.885,0 -1.604,-0.719 -1.604,-1.604l0,-16.63c0,-0.885 0.719,-1.604 1.604,-1.604c0.885,0 1.604,0.719 1.604,1.604l0,16.63Zm0,-33.26c0,0.885 -0.719,1.604 -1.604,1.604c-0.885,-0 -1.604,-0.719 -1.604,-1.604l0,-8.315c0,-5.477 1.092,-10.7 3.07,-15.465c0.339,-0.818 1.279,-1.206 2.097,-0.867c0.818,0.339 1.206,1.279 0.867,2.097c-1.82,4.386 -2.825,9.194 -2.825,14.235l0,8.315Zm22.963,-42.688c-0.818,0.339 -1.757,-0.049 -2.097,-0.867c-0.339,-0.818 0.049,-1.757 0.867,-2.097c4.765,-1.978 9.988,-3.07 15.465,-3.07l8.234,0c0.885,0 1.604,0.719 1.604,1.604c0,0.885 -0.719,1.604 -1.604,1.604l-8.234,0c-5.041,0 -9.85,1.005 -14.235,2.825Zm38.938,-2.825c-0.885,0 -1.604,-0.719 -1.604,-1.604c0,-0.885 0.719,-1.604 1.604,-1.604l16.468,0c0.885,0 1.604,0.719 1.604,1.604c0,0.885 -0.719,1.604 -1.604,1.604l-16.468,0Zm32.938,0c-0.885,0 -1.604,-0.719 -1.604,-1.604c0,-0.885 0.719,-1.604 1.604,-1.604l16.469,0c0.885,0 1.604,0.719 1.604,1.604c0,0.885 -0.719,1.604 -1.604,1.604l-16.469,0Zm32.937,0c-0.885,0 -1.604,-0.719 -1.604,-1.604c0,-0.885 0.719,-1.604 1.604,-1.604l16.469,0c0.885,0 1.604,0.719 1.604,1.604c0,0.885 -0.719,1.604 -1.604,1.604l-16.469,0Zm32.938,-0c-0.885,0 -1.604,-0.719 -1.604,-1.604c0,-0.885 0.719,-1.604 1.604,-1.604l16.469,0c0.885,0 1.604,0.719 1.604,1.604c0,0.885 -0.719,1.604 -1.604,1.604l-16.469,0Zm32.937,0c-0.885,0 -1.604,-0.719 -1.604,-1.604c0,-0.885 0.719,-1.604 1.604,-1.604l16.469,0c0.885,0 1.604,0.719 1.604,1.604c0,0.885 -0.719,1.604 -1.604,1.604l-16.469,0Zm32.937,-0c-0.885,0 -1.604,-0.719 -1.604,-1.604c0,-0.885 0.719,-1.604 1.604,-1.604l16.468,0c0.885,0 1.604,0.719 1.604,1.604c0,0.885 -0.719,1.604 -1.604,1.604l-16.468,0Zm32.939,0c-0.885,0 -1.604,-0.719 -1.604,-1.604c0,-0.885 0.719,-1.604 1.604,-1.604l16.47,0c0.885,0 1.604,0.719 1.604,1.604c0,0.885 -0.719,1.604 -1.604,1.604l-16.47,0Zm32.937,0c-0.885,0 -1.604,-0.719 -1.604,-1.604c0,-0.885 0.719,-1.604 1.604,-1.604l16.469,0c0.885,0 1.604,0.719 1.604,1.604c0,0.885 -0.719,1.604 -1.604,1.604l-16.469,0Zm32.936,0c-0.885,0 -1.604,-0.719 -1.604,-1.604c0,-0.885 0.719,-1.604 1.604,-1.604l16.469,0c0.885,0 1.604,0.719 1.604,1.604c0,0.885 -0.719,1.604 -1.604,1.604l-16.469,0Zm32.938,-0c-0.885,0 -1.604,-0.719 -1.604,-1.604c0,-0.885 0.719,-1.604 1.604,-1.604l16.469,0c0.885,0 1.604,0.719 1.604,1.604c0,0.885 -0.719,1.604 -1.604,1.604l-16.469,0Zm32.938,0c-0.885,0 -1.604,-0.719 -1.604,-1.604c0,-0.885 0.719,-1.604 1.604,-1.604l16.469,0c0.885,0 1.604,0.719 1.604,1.604c0,0.885 -0.719,1.604 -1.604,1.604l-16.469,0Zm32.939,0c-0.885,0 -1.604,-0.719 -1.604,-1.604c0,-0.885 0.719,-1.604 1.604,-1.604l16.468,0c0.885,0 1.604,0.719 1.604,1.604c0,0.885 -0.719,1.604 -1.604,1.604l-16.468,0Zm32.938,0c-0.885,0 -1.604,-0.719 -1.604,-1.604c0,-0.885 0.719,-1.604 1.604,-1.604l16.469,0c0.885,0 1.604,0.719 1.604,1.604c0,0.885 -0.719,1.604 -1.604,1.604l-16.469,0Zm32.937,0c-0.885,0 -1.604,-0.719 -1.604,-1.604c0,-0.885 0.719,-1.604 1.604,-1.604l16.468,0c0.885,0 1.604,0.719 1.604,1.604c0,0.885 -0.719,1.604 -1.604,1.604l-16.468,0Zm32.936,0c-0.885,0 -1.604,-0.719 -1.604,-1.604c0,-0.885 0.719,-1.604 1.604,-1.604l16.47,0c0.885,0 1.604,0.719 1.604,1.604c0,0.885 -0.719,1.604 -1.604,1.604l-16.47,0Zm32.937,0c-0.885,0 -1.604,-0.719 -1.604,-1.604c0,-0.885 0.719,-1.604 1.604,-1.604l16.469,0c0.885,0 1.604,0.719 1.604,1.604c0,0.885 -0.719,1.604 -1.604,1.604l-16.469,0Zm32.939,0c-0.885,0 -1.604,-0.719 -1.604,-1.604c0,-0.885 0.719,-1.604 1.604,-1.604l16.468,0c0.885,0 1.604,0.719 1.604,1.604c0,0.885 -0.719,1.604 -1.604,1.604l-16.468,0Zm32.937,0c-0.885,0 -1.604,-0.719 -1.604,-1.604c0,-0.885 0.719,-1.604 1.604,-1.604l16.469,0c0.885,0 1.604,0.719 1.604,1.604c0,0.885 -0.719,1.604 -1.604,1.604l-16.469,0Zm32.939,0c-0.885,0 -1.604,-0.719 -1.604,-1.604c0,-0.885 0.719,-1.604 1.604,-1.604l16.469,0c0.885,0 1.604,0.719 1.604,1.604c0,0.885 -0.719,1.604 -1.604,1.604l-16.469,0Zm32.938,0c-0.885,0 -1.604,-0.719 -1.604,-1.604c0,-0.885 0.719,-1.604 1.604,-1.604l16.469,0c0.885,0 1.604,0.719 1.604,1.604c0,0.885 -0.719,1.604 -1.604,1.604l-16.469,0Zm32.935,0c-0.885,0 -1.604,-0.719 -1.604,-1.604c0,-0.885 0.719,-1.604 1.604,-1.604l16.469,0c0.885,0 1.604,0.719 1.604,1.604c0,0.885 -0.719,1.604 -1.604,1.604l-16.469,0Zm32.94,0c-0.885,0 -1.604,-0.719 -1.604,-1.604c0,-0.885 0.719,-1.604 1.604,-1.604l16.469,0c0.885,0 1.604,0.719 1.604,1.604c0,0.885 -0.719,1.604 -1.604,1.604l-16.469,0Zm32.937,0c-0.885,0 -1.604,-0.719 -1.604,-1.604c0,-0.885 0.719,-1.604 1.604,-1.604l16.469,0c0.885,0 1.604,0.719 1.604,1.604c0,0.885 -0.719,1.604 -1.604,1.604l-16.469,0Zm32.938,0c-0.885,0 -1.604,-0.719 -1.604,-1.604c0,-0.885 0.719,-1.604 1.604,-1.604l16.469,0c0.885,0 1.604,0.719 1.604,1.604c0,0.885 -0.719,1.604 -1.604,1.604l-16.469,0Zm32.935,0c-0.885,0 -1.604,-0.719 -1.604,-1.604c0,-0.885 0.719,-1.604 1.604,-1.604l16.469,0c0.885,0 1.604,0.719 1.604,1.604c0,0.885 -0.719,1.604 -1.604,1.604l-16.469,0Zm32.939,0c-0.885,0 -1.604,-0.719 -1.604,-1.604c0,-0.885 0.719,-1.604 1.604,-1.604l16.469,0c0.885,0 1.604,0.719 1.604,1.604c0,0.885 -0.719,1.604 -1.604,1.604l-16.469,0Zm32.937,0c-0.885,0 -1.604,-0.719 -1.604,-1.604c0,-0.885 0.719,-1.604 1.604,-1.604l16.469,0c0.885,0 1.604,0.719 1.604,1.604c0,0.885 -0.719,1.604 -1.604,1.604l-16.469,0Zm32.939,0c-0.885,0 -1.604,-0.719 -1.604,-1.604c0,-0.885 0.719,-1.604 1.604,-1.604l16.469,0c0.885,0 1.604,0.719 1.604,1.604c0,0.885 -0.719,1.604 -1.604,1.604l-16.469,0Zm32.937,0c-0.885,0 -1.604,-0.719 -1.604,-1.604c0,-0.885 0.719,-1.604 1.604,-1.604l16.469,0c0.885,0 1.604,0.719 1.604,1.604c0,0.885 -0.719,1.604 -1.604,1.604l-16.469,0Zm32.938,0c-0.885,0 -1.604,-0.719 -1.604,-1.604c0,-0.885 0.719,-1.604 1.604,-1.604l16.469,0c0.885,0 1.604,0.719 1.604,1.604c0,0.885 -0.719,1.604 -1.604,1.604l-16.469,0Zm32.937,0c-0.885,0 -1.604,-0.719 -1.604,-1.604c0,-0.885 0.719,-1.604 1.604,-1.604l8.234,0c5.477,0 10.7,1.092 15.465,3.07c0.818,0.339 1.206,1.279 0.867,2.097c-0.339,0.818 -1.279,1.206 -2.097,0.867c-4.386,-1.82 -9.194,-2.825 -14.235,-2.825l-8.234,0Z" style="fill:#fff;fill-opacity:0.38;"/><g transform="matrix(20.18246,0,0,20.18246,332.821109,45.218199)"></g><text x="54.303px" y="45.218px" style="font-family:'JetBrainsMono-Regular', 'JetBrains Mono', monospace;font-size:20.182px;fill:#b3b3b3;stroke:#fff;stroke-opacity:0;stroke-width:0.23px;">Host PC -Physical layer</text></g><g id="HOST-OS" serif:id="HOST OS"><path id="Host-OS" serif:id="Host OS" d="M1076.81,98.242l0,609.701c0,18.695 -15.178,33.872 -33.872,33.872l-956.646,0c-18.695,0 -33.872,-15.178 -33.872,-33.872l0,-609.701c0,-18.695 15.178,-33.872 33.872,-33.872l956.646,0c18.695,0 33.872,15.178 33.872,33.872Z" style="fill:#0a257c;stroke:#325fee;stroke-width:5.05px;stroke-linecap:round;stroke-miterlimit:1.5;"/><g transform="matrix(19.444444,0,0,19.444444,148.346468,98.504717)"></g><text x="66.68px" y="98.505px" style="font-family:'JetBrainsMono-Regular', 'JetBrains Mono', monospace;font-size:19.444px;fill:#b3b3b3;stroke:#fff;stroke-opacity:0;stroke-width:0.23px;">Host OS</text><g id="SSH"><path d="M237.603,125.416l0,27.829c0,7.68 -6.235,13.915 -13.915,13.915l-141.286,0c-7.68,0 -13.915,-6.235 -13.915,-13.915l0,-27.829c0,-7.68 6.235,-13.915 13.915,-13.915l141.286,0c7.68,0 13.915,6.235 13.915,13.915Z" style="fill:#001866;stroke:#325fee;stroke-width:5.05px;stroke-linecap:round;stroke-miterlimit:1.5;"/><g transform="matrix(11.614441,0,0,11.614441,199.976968,158.532137)"></g><text x="109.384px" y="158.532px" style="font-family:'JetBrainsMono-Regular', 'JetBrains Mono', monospace;font-size:11.614px;fill:#ababab;stroke:#fff;stroke-opacity:0;stroke-width:0.23px;">Key-auth only</text><g transform="matrix(0.233333,0,0,0.233333,-1194.895601,-218.763654)"><text x="5904.39px" y="1488.451px" style="font-family:'JetBrainsMono-Regular', 'JetBrains Mono', monospace;font-size:49.776px;fill:#ababab;stroke:#fff;stroke-opacity:0;stroke-width:1px;">Secure</text><g transform="matrix(49.776175,0,0,49.776175,6083.583752,1554.155625)"></g><text x="5904.39px" y="1554.156px" style="font-family:'JetBrainsMono-Regular', 'JetBrains Mono', monospace;font-size:49.776px;fill:#ababab;stroke:#fff;stroke-opacity:0;stroke-width:1px;">access</text></g><g transform="matrix(38.122048,0,0,38.122048,147.108,145.882405)"></g><text x="78.488px" y="145.882px" style="font-family:'JetBrainsMono-Regular', 'JetBrains Mono', monospace;font-size:38.122px;fill:#ababab;stroke:#fff;stroke-opacity:0;stroke-width:0.23px;">SSH</text></g><g id="Tailscale"><path d="M393.907,262.347l0,27.829c0,7.68 -6.235,13.915 -13.915,13.915l-293.187,0c-7.68,0 -13.915,-6.235 -13.915,-13.915l0,-27.829c0,-7.68 6.235,-13.915 13.915,-13.915l293.187,0c7.68,0 13.915,6.235 13.915,13.915Z" style="fill:#001866;stroke:#325fee;stroke-width:5.05px;stroke-linecap:round;stroke-miterlimit:1.5;"/><g transform="matrix(19.076125,0,0,19.076125,381.547681,273.194282)"></g><text x="301.428px" y="273.194px" style="font-family:'JetBrainsMono-Regular', 'JetBrains Mono', monospace;font-size:19.076px;fill:#ebdd00;stroke:#ababab;stroke-opacity:0;stroke-width:0.23px;">Planned</text><g transform="matrix(38.122048,0,0,38.122048,288.750294,282.813238)"></g><text x="82.891px" y="282.813px" style="font-family:'JetBrainsMono-Regular', 'JetBrains Mono', monospace;font-size:38.122px;fill:#ababab;stroke:#fff;stroke-opacity:0;stroke-width:0.23px;">Tailscale</text></g><g id="Docker"><path d="M494.257,125.416l0,27.829c0,7.68 -6.235,13.915 -13.915,13.915l-210.103,0c-7.68,0 -13.915,-6.235 -13.915,-13.915l0,-27.829c0,-7.68 6.235,-13.915 13.915,-13.915l210.103,0c7.68,0 13.915,6.235 13.915,13.915Z" style="fill:#001866;stroke:#325fee;stroke-width:5.35px;stroke-linecap:round;stroke-miterlimit:1.5;"/><g transform="matrix(11.614441,0,0,11.614441,405.022446,160.31705)"></g><text x="293.524px" y="160.317px" style="font-family:'JetBrainsMono-Regular', 'JetBrains Mono', monospace;font-size:11.614px;fill:#ababab;stroke:#fff;stroke-opacity:0;stroke-width:0.23px;">Containerization</text><g transform="matrix(11.614441,0,0,11.614441,479.310229,137.165044)"></g><text x="416.592px" y="137.165px" style="font-family:'JetBrainsMono-Regular', 'JetBrains Mono', monospace;font-size:11.614px;fill:#ababab;stroke:#fff;stroke-opacity:0;stroke-width:0.23px;">Portainer</text><g transform="matrix(38.122048,0,0,38.122048,406.073859,146.625453)"></g><text x="268.834px" y="146.625px" style="font-family:'JetBrainsMono-Regular', 'JetBrains Mono', monospace;font-size:38.122px;fill:#ababab;stroke:#fff;stroke-opacity:0;stroke-width:0.23px;">DOCKER</text></g><g id="UBUNTU"><path d="M463.661,194.843l0,27.829c0,7.68 -6.235,13.915 -13.915,13.915l-367.343,0c-7.68,0 -13.915,-6.235 -13.915,-13.915l0,-27.829c0,-7.68 6.235,-13.915 13.915,-13.915l367.343,0c7.68,0 13.915,6.235 13.915,13.915Z" style="fill:#001866;stroke:#325fee;stroke-width:5.05px;stroke-linecap:round;stroke-miterlimit:1.5;"/><g transform="matrix(38.122048,0,0,38.122048,377.895351,215.309183)"></g><text x="80.543px" y="215.309px" style="font-family:'JetBrainsMono-Regular', 'JetBrains Mono', monospace;font-size:38.122px;fill:#ababab;stroke:#fff;stroke-opacity:0;stroke-width:0.23px;">DEBIAN/UBUNTU</text><g transform="matrix(0.233333,0,0,0.233333,-1620.944211,-158.416541)"><text x="7659.325px" y="1672.689px" style="font-family:'JetBrainsMono-Regular', 'JetBrains Mono', monospace;font-size:49.583px;fill:#ababab;stroke:#fff;stroke-opacity:0;stroke-width:1px;">Host</text><g transform="matrix(64.621949,0,0,64.621949,7894.644741,1672.688592)"></g><text x="7817.098px" y="1672.689px" style="font-family:'JetBrainsMono-Regular', 'JetBrains Mono', monospace;font-size:64.622px;fill:#ababab;stroke:#fff;stroke-opacity:0;stroke-width:1px;">OS</text></g><g transform="matrix(0.233333,0,0,0.233333,-1397.791452,-190.256489)"><text x="7659.325px" y="1672.689px" style="font-family:'JetBrainsMono-Regular', 'JetBrains Mono', monospace;font-size:49.583px;fill:#ababab;stroke:#fff;stroke-opacity:0;stroke-width:1px;">CLI based</text><g transform="matrix(49.583333,0,0,49.583333,7927.075232,1738.138592)"></g><text x="7659.325px" y="1738.139px" style="font-family:'JetBrainsMono-Regular', 'JetBrains Mono', monospace;font-size:49.583px;fill:#ababab;stroke:#fff;stroke-opacity:0;stroke-width:1px;">server OS</text></g></g></g><g id="Dcoker-runtime" serif:id="Dcoker runtime"><path d="M1061.731,353.496l0,275.938c0,19.037 -15.455,34.492 -34.492,34.492l-931.441,0c-19.037,0 -34.492,-15.455 -34.492,-34.492l0,-275.938c0,-19.037 15.455,-34.492 34.492,-34.492l931.441,0c19.037,0 34.492,15.455 34.492,34.492Z" style="fill:#0e6928;stroke:#138f37;stroke-width:5.35px;stroke-linecap:round;stroke-miterlimit:1.5;"/><g id="services"><path d="M482.659,379.321l0,196.065c0,13.526 -10.982,24.508 -24.508,24.508l-355.546,0c-13.526,0 -24.508,-10.982 -24.508,-24.508l0,-196.065c0,-13.526 10.982,-24.508 24.508,-24.508l355.546,0c13.526,0 24.508,10.982 24.508,24.508Z" style="fill:#005b1a;stroke:#138f37;stroke-width:5.35px;stroke-linecap:round;stroke-miterlimit:1.5;"/><g transform="matrix(19.444444,0,0,19.444444,190.212773,383.718414)"></g><text x="96.879px" y="383.718px" style="font-family:'JetBrainsMono-Regular', 'JetBrains Mono', monospace;font-size:19.444px;fill:#d7d7d7;stroke:#fff;stroke-opacity:0;stroke-width:0.23px;">Services</text><g id="Portainer"><path d="M469.053,401.241l0,45.889c0,3.166 -2.57,5.736 -5.736,5.736l-359.301,0c-3.166,0 -5.736,-2.57 -5.736,-5.736l0,-45.889c0,-3.166 2.57,-5.736 5.736,-5.736l359.301,0c3.166,0 5.736,2.57 5.736,5.736Z" style="fill:#005b1a;stroke:#138f37;stroke-width:5.35px;stroke-linecap:round;stroke-miterlimit:1.5;"/><g transform="matrix(0.233333,0,0,0.233333,-1128.271859,-207.321003)"><text x="6221.614px" y="2667.608px" style="font-family:'JetBrainsMono-Regular', 'JetBrains Mono', monospace;font-size:50px;fill:#d7d7d7;stroke:#fff;stroke-opacity:0;stroke-width:1px;">management of</text><g transform="matrix(50,0,0,50,6731.614093,2728.395125)"></g><text x="6221.614px" y="2728.395px" style="font-family:'JetBrainsMono-Regular', 'JetBrains Mono', monospace;font-size:50px;fill:#d7d7d7;stroke:#fff;stroke-opacity:0;stroke-width:1px;">docker containers</text></g><g transform="matrix(37.916667,0,0,37.916667,311.73993,431.852279)"></g><text x="106.99px" y="431.852px" style="font-family:'JetBrainsMono-Regular', 'JetBrains Mono', monospace;font-size:37.917px;fill:#d7d7d7;stroke:#fff;stroke-opacity:0;stroke-width:0.23px;">PORTAINER</text><g transform="matrix(11.666667,0,0,11.666667,286.545376,443.801739)"></g><text x="139.545px" y="443.802px" style="font-family:'JetBrainsMono-Regular', 'JetBrains Mono', monospace;font-size:11.667px;fill:#d7d7d7;stroke:#fff;stroke-opacity:0;stroke-width:0.23px;">deployed on port 9000</text></g><g id="Glance"><g><path d="M467.182,469.839l0,44.839c0,3.093 -2.511,5.605 -5.605,5.605l-357.693,0c-3.093,0 -5.605,-2.511 -5.605,-5.605l0,-44.839c0,-3.093 2.511,-5.605 5.605,-5.605l357.693,0c3.093,0 5.605,2.511 5.605,5.605Z" style="fill:#005b1a;stroke:#138f37;stroke-width:5.35px;stroke-linecap:round;stroke-miterlimit:1.5;"/><g transform="matrix(37.916667,0,0,37.916667,266.204816,499.076054)"></g><text x="106.955px" y="499.076px" style="font-family:'JetBrainsMono-Regular', 'JetBrains Mono', monospace;font-size:37.917px;fill:#d7d7d7;stroke:#fff;stroke-opacity:0;stroke-width:0.23px;">GLANCES</text></g><g><g transform="matrix(0.233333,0,0,0.233333,-1208.278442,-212.103657)"><text x="6563.149px" y="2974.65px" style="font-family:'JetBrainsMono-Regular', 'JetBrains Mono', monospace;font-size:50px;fill:#d7d7d7;stroke:#fff;stroke-opacity:0;stroke-width:1px;">General server</text><g transform="matrix(50,0,0,50,6833.149445,3039.414458)"></g><text x="6563.149px" y="3039.414px" style="font-family:'JetBrainsMono-Regular', 'JetBrains Mono', monospace;font-size:50px;fill:#d7d7d7;stroke:#fff;stroke-opacity:0;stroke-width:1px;">dashboard</text></g><g transform="matrix(11.666667,0,0,11.666667,290.664251,511.741134)"></g><text x="136.664px" y="511.741px" style="font-family:'JetBrainsMono-Regular', 'JetBrains Mono', monospace;font-size:11.667px;fill:#d7d7d7;stroke:#fff;stroke-opacity:0;stroke-width:0.23px;">deployed on port 61208</text></g></g><g id="minecraft"><path d="M469.053,534.98l0,45.889c0,3.166 -2.57,5.736 -5.736,5.736l-359.301,0c-3.166,0 -5.736,-2.57 -5.736,-5.736l0,-45.889c0,-3.166 2.57,-5.736 5.736,-5.736l359.301,0c3.166,0 5.736,2.57 5.736,5.736Z" style="fill:#005b1a;stroke:#138f37;stroke-width:5.35px;stroke-linecap:round;stroke-miterlimit:1.5;"/><g transform="matrix(37.916667,0,0,37.916667,266.23993,565.591492)"></g><text x="106.99px" y="565.591px" style="font-family:'JetBrainsMono-Regular', 'JetBrains Mono', monospace;font-size:37.917px;fill:#d7d7d7;stroke:#fff;stroke-opacity:0;stroke-width:0.23px;">Planned</text><g transform="matrix(19.887454,0,0,19.887454,386.338533,579.520865)"></g><text x="278.946px" y="579.521px" style="font-family:'JetBrainsMono-Regular', 'JetBrains Mono', monospace;font-size:19.887px;fill:#ffd928;stroke:#fff;stroke-opacity:0;stroke-width:0.23px;">Minecraft</text><g transform="matrix(19.887454,0,0,19.887454,374.406061,553.103251)"></g><text x="278.946px" y="553.103px" style="font-family:'JetBrainsMono-Regular', 'JetBrains Mono', monospace;font-size:19.887px;fill:#ffd928;stroke:#fff;stroke-opacity:0;stroke-width:0.23px;">Website,</text></g></g><path id="Data-processing" serif:id="Data processing" d="M1036.412,378.861l0,194.004c0,13.384 -10.866,24.251 -24.251,24.251l-475.207,0c-13.384,0 -24.251,-10.866 -24.251,-24.251l0,-194.004c0,-13.384 10.866,-24.251 24.251,-24.251l475.207,0c13.384,0 24.251,10.866 24.251,24.251Z" style="fill:#005b1a;"/><clipPath id="_clip2"><path d="M1036.412,378.861l0,194.004c0,13.384 -10.866,24.251 -24.251,24.251l-475.207,0c-13.384,0 -24.251,-10.866 -24.251,-24.251l0,-194.004c0,-13.384 10.866,-24.251 24.251,-24.251l475.207,0c13.384,0 24.251,10.866 24.251,24.251Z"/></clipPath><g clip-path="url(#_clip2)"><g transform="matrix(19.444444,0,0,19.444444,708.430391,381.461525)"></g><text x="533.43px" y="381.462px" style="font-family:'JetBrainsMono-Regular', 'JetBrains Mono', monospace;font-size:19.444px;fill:#fff;stroke:#fff;stroke-opacity:0;stroke-width:0.23px;">Data processing</text><g id="data-science" serif:id="data science"><path d="M1027.586,414.568l0,152.603c0,10.528 -8.547,19.075 -19.075,19.075l-464.313,0c-10.528,0 -19.075,-8.547 -19.075,-19.075l0,-152.603c0,-10.528 8.547,-19.075 19.075,-19.075l464.313,0c10.528,0 19.075,8.547 19.075,19.075Z" style="fill:#005b1a;stroke:#138f37;stroke-width:5.35px;stroke-linecap:round;stroke-miterlimit:1.5;"/><g transform="matrix(41.984929,0,0,41.984929,737.855114,506.511956)"></g><text x="561.518px" y="506.512px" style="font-family:'JetBrainsMono-Regular', 'JetBrains Mono', monospace;font-size:41.985px;fill:#face00;stroke:#fff;stroke-opacity:0;stroke-width:0.23px;">planned</text><g transform="matrix(0.233333,0,0,0.233333,-1227.259925,-21.70121)"><text x="7602.507px" y="1940.854px" style="font-family:'JetBrainsMono-Regular', 'JetBrains Mono', monospace;font-size:126.908px;fill:#fff;stroke:#fff;stroke-opacity:0;stroke-width:1px;">DATA ANALYTICS AND</text><g transform="matrix(126.908212,0,0,126.908212,8516.246606,2065.85427)"></g><text x="7602.507px" y="2065.854px" style="font-family:'JetBrainsMono-Regular', 'JetBrains Mono', monospace;font-size:126.908px;fill:#fff;stroke:#fff;stroke-opacity:0;stroke-width:1px;">ECONOMETRICS</text></g></g></g><path d="M1036.412,378.861l0,194.004c0,13.384 -10.866,24.251 -24.251,24.251l-475.207,0c-13.384,0 -24.251,-10.866 -24.251,-24.251l0,-194.004c0,-13.384 10.866,-24.251 24.251,-24.251l475.207,0c13.384,0 24.251,10.866 24.251,24.251Z" style="fill:none;stroke:#138f37;stroke-width:5.35px;stroke-linecap:round;stroke-miterlimit:1.5;"/><g transform="matrix(19.444444,0,0,19.444444,380.719818,344.697408)"></g><text x="77.386px" y="344.697px" style="font-family:'JetBrainsMono-Regular', 'JetBrains Mono', monospace;font-size:19.444px;fill:#d7d7d7;stroke:#fff;stroke-opacity:0;stroke-width:0.23px;">Docker Runtime - Portainer</text></g><g id="Netqork-layer" serif:id="Netqork layer"><path d="M1061.731,141.787l0,60.572c0,16.715 -13.571,30.286 -30.286,30.286l-492.87,0c-16.715,0 -30.286,-13.571 -30.286,-30.286l0,-60.572c0,-16.715 13.571,-30.286 30.286,-30.286l492.87,0c16.715,0 30.286,13.571 30.286,30.286Z" style="fill:#ba4a02;stroke:#e25902;stroke-width:5.83px;stroke-linecap:round;stroke-miterlimit:1.5;"/><g id="PI--hole" serif:id="PI- hole"><path d="M767.114,166.651l0,37.378c0,10.315 -8.374,18.689 -18.689,18.689l-202.807,0c-10.315,0 -18.689,-8.374 -18.689,-18.689l0,-37.378c0,-10.315 8.374,-18.689 18.689,-18.689l202.807,0c10.315,0 18.689,8.374 18.689,18.689Z" style="fill:#8f3800;stroke:#e25902;stroke-width:5.35px;stroke-linecap:round;stroke-miterlimit:1.5;"/><g transform="matrix(11.569444,0,0,11.569444,754.183177,174.466586)"></g><text x="698.65px" y="174.467px" style="font-family:'JetBrainsMono-Regular', 'JetBrains Mono', monospace;font-size:11.569px;fill:#d7d7d7;stroke:#fff;stroke-opacity:0;stroke-width:0.23px;">AD block</text><g transform="matrix(11.569444,0,0,11.569444,727.631943,203.857266)"></g><text x="658.215px" y="203.857px" style="font-family:'JetBrainsMono-Regular', 'JetBrains Mono', monospace;font-size:11.569px;fill:#d7d7d7;stroke:#fff;stroke-opacity:0;stroke-width:0.23px;">On port 53</text><g transform="matrix(0.233333,0,0,0.233333,-950.922723,-278.975929)"><text x="6381.905px" y="2044.554px" style="font-family:'JetBrainsMono-Regular', 'JetBrains Mono', monospace;font-size:49.583px;fill:#d7d7d7;stroke:#fff;stroke-opacity:0;stroke-width:1px;">Docker</text><text x="6587.357px" y="2044.554px" style="font-family:'JetBrainsMono-Regular', 'JetBrains Mono', monospace;font-size:44.92px;fill:#d7d7d7;stroke:#fff;stroke-opacity:0;stroke-width:1px;">container</text><g transform="matrix(49.583333,0,0,49.583333,6709.154701,2094.554421)"></g><text x="6381.905px" y="2094.554px" style="font-family:'JetBrainsMono-Regular', 'JetBrains Mono', monospace;font-size:49.583px;fill:#d7d7d7;stroke:#fff;stroke-opacity:0;stroke-width:1px;">host driver</text></g><g transform="matrix(37.916667,0,0,37.916667,694.218374,184.14117)"></g><text x="534.968px" y="184.141px" style="font-family:'JetBrainsMono-Regular', 'JetBrains Mono', monospace;font-size:37.917px;fill:#d7d7d7;stroke:#fff;stroke-opacity:0;stroke-width:0.23px;">PI-HOLE</text></g><g id="tailscale"><path d="M1047.871,166.651l0,37.378c0,10.315 -8.374,18.689 -18.689,18.689l-221.726,0c-10.315,0 -18.689,-8.374 -18.689,-18.689l0,-37.378c0,-10.315 8.374,-18.689 18.689,-18.689l221.726,0c10.315,0 18.689,8.374 18.689,18.689Z" style="fill:#8f3800;stroke:#e25902;stroke-width:5.35px;stroke-linecap:round;stroke-miterlimit:1.5;"/><text x="796.886px" y="184.991px" style="font-family:'JetBrainsMono-Regular', 'JetBrains Mono', monospace;font-size:35px;fill:#fff;stroke:#fff;stroke-opacity:0;stroke-width:0.23px;">Planned</text><g transform="matrix(20.962837,0,0,20.962837,970.595049,210.991607)"></g><text x="907.707px" y="210.992px" style="font-family:'JetBrainsMono-Regular', 'JetBrains Mono', monospace;font-size:20.963px;fill:#ffd928;stroke:#fff;stroke-opacity:0;stroke-width:0.23px;">Nginx</text></g><g transform="matrix(19.444444,0,0,19.444444,682.076573,138.157218)"></g><text x="530.41px" y="138.157px" style="font-family:'JetBrainsMono-Regular', 'JetBrains Mono', monospace;font-size:19.444px;fill:#d7d7d7;stroke:#fff;stroke-opacity:0;stroke-width:0.23px;">Network Layer</text></g><path d="M360.606,393.281l-6.976,2.988l-2.988,-6.976" style="fill:none;stroke:#fcb22b;stroke-width:3.58px;stroke-linecap:round;stroke-linejoin:miter;stroke-miterlimit:10;"/><path d="M481.198,168.191c-0.569,-0.806 -0.377,-1.924 0.429,-2.493c0.806,-0.569 1.924,-0.377 2.493,0.429c0,0 3.715,5.241 7.11,14.323c0.346,0.925 -0.124,1.956 -1.049,2.302c-0.925,0.346 -1.956,-0.124 -2.302,-1.049c-3.2,-8.562 -6.682,-13.512 -6.682,-13.512Zm11.928,43.353c0.011,-0.987 0.821,-1.78 1.809,-1.769c0.987,0.011 1.78,0.821 1.769,1.809c-0.104,9.384 -1.769,19.846 -6.067,31.01c-0.355,0.921 -1.391,1.381 -2.312,1.027c-0.921,-0.355 -1.381,-1.391 -1.027,-2.312c4.125,-10.716 5.728,-20.757 5.828,-29.765Zm-20.879,56.325c0.596,-0.787 1.719,-0.943 2.506,-0.347c0.787,0.596 0.943,1.719 0.347,2.506c-5.695,7.525 -12.758,15.212 -21.457,22.965c-0.737,0.657 -1.869,0.592 -2.526,-0.145c-0.657,-0.737 -0.592,-1.869 0.145,-2.526c8.506,-7.581 15.416,-15.095 20.985,-22.453Zm-45.432,41.296c0.818,-0.552 1.931,-0.336 2.483,0.483c0.552,0.818 0.336,1.931 -0.483,2.483c-4.145,2.796 -8.53,5.59 -13.169,8.382c-0.329,0.225 -2.73,1.883 -6.461,4.897c-0.768,0.62 -1.895,0.501 -2.516,-0.267c-0.62,-0.768 -0.501,-1.895 0.267,-2.516c4.175,-3.373 6.747,-5.106 6.747,-5.106c0.026,-0.017 0.052,-0.034 0.079,-0.05c4.597,-2.764 8.943,-5.534 13.052,-8.306Zm-32.422,24.601c0.709,-0.687 1.842,-0.67 2.529,0.039c0.687,0.709 0.67,1.842 -0.039,2.529c-3.557,3.448 -7.401,7.436 -11.331,11.945c-0.649,0.744 -1.78,0.822 -2.524,0.173c-0.744,-0.649 -0.822,-1.78 -0.173,-2.524c4.002,-4.591 7.916,-8.652 11.538,-12.163Zm-22.002,25.268c0.581,-0.798 1.701,-0.974 2.499,-0.392c0.798,0.581 0.974,1.701 0.392,2.499c-3.107,4.264 -6.161,8.842 -9.061,13.725c-0.504,0.849 -1.603,1.129 -2.451,0.624c-0.849,-0.504 -1.129,-1.603 -0.624,-2.451c2.96,-4.982 6.075,-9.654 9.246,-14.004Zm-17.089,28.854c0.416,-0.896 1.48,-1.285 2.376,-0.87c0.896,0.416 1.285,1.48 0.87,2.376c-1.139,2.453 -2.227,4.967 -3.257,7.539c-0.367,0.917 -1.409,1.363 -2.325,0.996c-0.917,-0.367 -1.363,-1.409 -0.996,-2.325c1.054,-2.633 2.168,-5.205 3.333,-7.716Z" style="fill:#fcb22b;"/><path d="M96.03,484.665l2.249,7.248l-7.248,2.249" style="fill:none;stroke:#fcb22b;stroke-width:3.58px;stroke-linecap:round;stroke-linejoin:miter;stroke-miterlimit:10;"/><path d="M97.088,422.852c0.736,-0.658 1.868,-0.594 2.526,0.142c0.658,0.736 0.594,1.868 -0.142,2.526c-1.615,1.443 -3.111,2.955 -4.488,4.523c-0.651,0.742 -1.783,0.815 -2.524,0.164c-0.742,-0.651 -0.815,-1.783 -0.164,-2.524c1.47,-1.674 3.067,-3.289 4.792,-4.83Zm-12.417,16.092c0.445,-0.881 1.522,-1.236 2.403,-0.791c0.881,0.445 1.236,1.522 0.791,2.403c-1.965,3.894 -3.349,7.929 -4.159,11.962c-0.195,0.968 -1.138,1.596 -2.106,1.401c-0.968,-0.195 -1.596,-1.138 -1.401,-2.106c0.872,-4.338 2.358,-8.68 4.473,-12.869Zm-5.187,26.517c-0.099,-0.982 0.618,-1.86 1.6,-1.959c0.982,-0.099 1.86,0.618 1.959,1.6c0.43,4.27 1.55,8.346 3.35,12.026c0.434,0.887 0.066,1.959 -0.821,2.393c-0.887,0.434 -1.959,0.066 -2.393,-0.821c-1.982,-4.051 -3.223,-8.538 -3.696,-13.24Zm12.181,24.161c-0.757,-0.634 -0.856,-1.763 -0.221,-2.52c0.634,-0.757 1.763,-0.856 2.52,-0.221c1.556,1.305 3.273,2.463 5.15,3.45c0.874,0.46 1.21,1.542 0.75,2.416c-0.46,0.874 -1.542,1.21 -2.416,0.75c-2.107,-1.109 -4.035,-2.41 -5.782,-3.875Z" style="fill:#fcb22b;"/><path d="M97.7,549.157l0.579,7.567l-7.567,0.579" style="fill:none;stroke:#fcb22b;stroke-width:3.58px;stroke-linecap:round;stroke-linejoin:miter;stroke-miterlimit:10;"/><path d="M97.139,422.808c0.76,-0.63 1.889,-0.524 2.519,0.237c0.63,0.76 0.524,1.889 -0.237,2.519c-2.867,2.374 -5.743,5.301 -8.519,8.688c-0.626,0.764 -1.754,0.875 -2.517,0.25c-0.764,-0.626 -0.875,-1.754 -0.25,-2.517c2.933,-3.578 5.976,-6.668 9.004,-9.176Zm-22.278,30.906c0.403,-0.901 1.462,-1.305 2.364,-0.902c0.901,0.403 1.305,1.462 0.902,2.364c-3.23,7.215 -5.763,15.148 -7.187,23.472c-0.166,0.973 -1.092,1.628 -2.065,1.462c-0.973,-0.166 -1.628,-1.092 -1.462,-2.065c1.476,-8.629 4.1,-16.852 7.448,-24.331Zm-8.176,49.811c-0.118,-0.98 0.582,-1.872 1.562,-1.99c0.98,-0.118 1.872,0.582 1.99,1.562c0.941,7.828 3.081,15.719 6.716,23.441c0.42,0.893 0.037,1.96 -0.857,2.38c-0.893,0.42 -1.96,0.037 -2.38,-0.857c-3.805,-8.083 -6.046,-16.344 -7.031,-24.537Zm21.279,45.685c-0.664,-0.731 -0.609,-1.863 0.122,-2.527c0.731,-0.664 1.863,-0.609 2.527,0.122c2.651,2.921 5.589,5.78 8.832,8.561c0.749,0.643 0.836,1.773 0.193,2.522c-0.643,0.749 -1.773,0.836 -2.522,0.193c-3.36,-2.882 -6.404,-5.845 -9.151,-8.872Z" style="fill:#fcb22b;"/><path d="M557.544,230.836l3.975,-6.465l6.465,3.975" style="fill:none;stroke:#fcb22b;stroke-width:3.58px;stroke-linecap:round;stroke-linejoin:miter;stroke-miterlimit:10;"/><path d="M469.729,425.841c-0.914,0.373 -1.959,-0.065 -2.332,-0.979c-0.373,-0.914 0.065,-1.959 0.979,-2.332c2.942,-1.202 5.806,-2.558 8.592,-4.057c0.869,-0.468 1.955,-0.141 2.423,0.728c0.468,0.869 0.141,1.955 -0.728,2.423c-2.897,1.558 -5.874,2.968 -8.934,4.218Zm25.292,-15.193c-0.766,0.623 -1.893,0.507 -2.516,-0.258c-0.623,-0.766 -0.507,-1.893 0.258,-2.516c4.884,-3.974 9.477,-8.406 13.789,-13.204c0.66,-0.734 1.792,-0.795 2.526,-0.135c0.734,0.66 0.795,1.792 0.135,2.526c-4.438,4.938 -9.166,9.498 -14.192,13.588Zm26.323,-28.984c-0.563,0.811 -1.679,1.012 -2.49,0.449c-0.811,-0.563 -1.012,-1.679 -0.449,-2.49c3.619,-5.21 6.987,-10.676 10.113,-16.321c0.478,-0.864 1.568,-1.176 2.432,-0.698c0.864,0.478 1.176,1.568 0.698,2.432c-3.185,5.751 -6.618,11.32 -10.305,16.628Zm19.021,-34.11c-0.404,0.901 -1.463,1.304 -2.364,0.9c-0.901,-0.404 -1.304,-1.463 -0.9,-2.364c2.635,-5.876 5.039,-11.852 7.22,-17.85c0.337,-0.928 1.365,-1.407 2.292,-1.07c0.928,0.337 1.407,1.365 1.07,2.292c-2.21,6.08 -4.647,12.136 -7.318,18.092Zm13.368,-36.634c-0.276,0.948 -1.269,1.494 -2.217,1.218c-0.948,-0.276 -1.494,-1.269 -1.218,-2.217c1.835,-6.313 3.429,-12.566 4.79,-18.668c0.215,-0.964 1.172,-1.571 2.135,-1.356c0.964,0.215 1.571,1.172 1.356,2.135c-1.377,6.174 -2.99,12.5 -4.846,18.888Zm8.468,-38.054c-0.15,0.976 -1.064,1.646 -2.04,1.496c-0.976,-0.15 -1.646,-1.064 -1.496,-2.04c1.043,-6.774 1.769,-13.196 2.191,-19.113c0.07,-0.985 0.927,-1.727 1.911,-1.657c0.985,0.07 1.727,0.927 1.657,1.911c-0.428,6.007 -1.164,12.526 -2.223,19.403Zm2.435,-39.024c0.067,0.985 -0.679,1.839 -1.664,1.905c-0.985,0.067 -1.839,-0.679 -1.905,-1.664c-0.243,-3.591 -0.672,-6.719 -1.287,-9.298c-0.229,-0.96 0.365,-1.926 1.325,-2.155c0.96,-0.229 1.926,0.365 2.155,1.325c0.654,2.743 1.119,6.068 1.377,9.887Z" style="fill:#fcb22b;"/></g></svg>